<svg xmlns="http://www.w3.org/2000/svg" width="19.259" height="21.998" viewBox="0 0 19.259 21.998"><defs><style>.accueil-a,.accueil-b{fill:none;stroke:#6ec8de;stroke-linecap:round;stroke-linejoin:round;}.accueil-a{fill-rule:evenodd;}</style></defs><g transform="translate(-384 -166)"><g transform="translate(384.5 166.5)"><path class="accueil-a" d="M403.27,167.413a.858.858,0,0,0-.789-.913H388.289a.858.858,0,0,0-.789.913v16.433a.858.858,0,0,0,.789.913h14.193a.858.858,0,0,0,.789-.913Z" transform="translate(-385.011 -166.5)"/><path class="accueil-b" d="M399.325,182.537H387.5" transform="translate(-382.972 -171.654)"/><path class="accueil-b" d="M399.325,182.537H387.5" transform="translate(-382.972 -175.306)"/><path class="accueil-b" d="M399.325,182.537H387.5" transform="translate(-382.972 -178.958)"/><path class="accueil-b" d="M386.989,170.5H385.33a.875.875,0,0,0-.83.913v15.52a.875.875,0,0,0,.83.913h14.1a.875.875,0,0,0,.83-.913v-1.826" transform="translate(-384.5 -166.848)"/></g></g></svg>