<svg xmlns="http://www.w3.org/2000/svg" width="21.998" height="21.998" viewBox="0 0 21.998 21.998"><defs><style>.defi-a,.defi-b{fill:none;stroke:#5c747b;stroke-linecap:round;stroke-linejoin:round;}.defi-a{fill-rule:evenodd;}</style></defs><g transform="translate(-288.002 -454.002)"><g transform="translate(288.502 454.502)"><path class="defi-a" d="M296.611,472.716a4.109,4.109,0,1,0-4.109-4.109A4.109,4.109,0,0,0,296.611,472.716Z" transform="translate(-288.85 -455.371)"/><path class="defi-a" d="M296.263,476.021a7.761,7.761,0,1,0-7.761-7.761A7.762,7.762,0,0,0,296.263,476.021Z" transform="translate(-288.502 -455.023)"/><path class="defi-b" d="M288.5,477.282l2.274-2.274" transform="translate(-288.502 -456.284)"/><path class="defi-b" d="M303.013,475.008l2.273,2.274" transform="translate(-289.763 -456.284)"/><path class="defi-a" d="M304.4,460.959l-.323-3.551,2.906-2.906.969,2.906,2.906.969-2.906,2.906-3.551-.323Z" transform="translate(-289.855 -454.502)"/><path class="defi-b" d="M306.133,459,297,468.129" transform="translate(-289.241 -454.893)"/></g></g></svg>