<svg xmlns="http://www.w3.org/2000/svg" width="22.005" height="22" viewBox="0 0 22.005 22"><defs><style>.profil-a{fill:none;stroke:#5c747b;stroke-linecap:round;stroke-linejoin:round;fill-rule:evenodd;}</style></defs><g transform="translate(-288 -221)"><g transform="translate(288.5 221.5)"><path class="profil-a" d="M288.5,242.5a11.424,11.424,0,0,1,.919-4.36c.643-1.288,3.332-2.18,6.708-3.43.912-.339.763-2.722.358-3.167a6.73,6.73,0,0,1-1.754-5.221,4.3,4.3,0,1,1,8.542,0,6.73,6.73,0,0,1-1.754,5.221c-.4.445-.554,2.828.358,3.167,3.376,1.25,6.065,2.142,6.708,3.43a11.426,11.426,0,0,1,.919,4.36Z" transform="translate(-288.5 -221.5)"/></g></g></svg>