<svg xmlns="http://www.w3.org/2000/svg" width="22" height="22" viewBox="0 0 22 22"><defs><style>.social-a,.social-b{fill:none;stroke:#5c747b;stroke-linecap:round;stroke-linejoin:round;}.a{fill-rule:evenodd;}</style></defs><g transform="translate(-288 -214)"><g transform="translate(288.5 214.5)"><path class="social-a" d="M288.5,236.109a7.949,7.949,0,0,1,.639-3.033c.447-.9,2.318-1.517,4.667-2.386.635-.236.53-1.894.249-2.2a4.681,4.681,0,0,1-1.22-3.632,2.988,2.988,0,1,1,5.942,0,4.682,4.682,0,0,1-1.22,3.632c-.281.31-.385,1.968.249,2.2,2.348.869,4.219,1.49,4.667,2.386a7.949,7.949,0,0,1,.639,3.033Z" transform="translate(-288.5 -215.109)"/><path class="social-a" d="M304.635,222.77a4.135,4.135,0,1,0-4.135-4.135A4.136,4.136,0,0,0,304.635,222.77Z" transform="translate(-289.543 -214.5)"/><path class="social-b" d="M311.218,225.218l-2.966-2.966" transform="translate(-290.218 -215.174)"/><path class="social-b" d="M306.885,236.5h3.2v-.779c0-2.76-2.024-3.206-3.933-3.912-.639-.235-.53-1.892-.249-2.2a4.684,4.684,0,0,0,1.219-3.63" transform="translate(-289.993 -215.498)"/></g></g></svg>