<svg xmlns="http://www.w3.org/2000/svg" width="15.5" height="10.5" viewBox="0 0 15.5 10.5"><defs><style>.cam-a,.cam-b{fill:none;stroke:#5c747b;stroke-linecap:round;stroke-linejoin:round;stroke-width:0.5px;}.cam-a{fill-rule:evenodd;}</style></defs><g transform="translate(-244.25 -460.25)"><path class="cam-a" d="M252,468.5a2.5,2.5,0,1,0-2.5-2.5A2.5,2.5,0,0,0,252,468.5Z"/><path class="cam-a" d="M258,462.5h-2a1.389,1.389,0,0,1-.854-.354l-1.292-1.292A1.389,1.389,0,0,0,253,460.5h-2a1.389,1.389,0,0,0-.854.354l-1.292,1.292a1.389,1.389,0,0,1-.854.354h-2a1.5,1.5,0,0,0-1.5,1.5v5a1.5,1.5,0,0,0,1.5,1.5h12a1.5,1.5,0,0,0,1.5-1.5v-5A1.5,1.5,0,0,0,258,462.5Z"/><path class="cam-b" d="M257,464.75a.25.25,0,1,1-.25.25.25.25,0,0,1,.25-.25"/></g></svg>