<svg xmlns="http://www.w3.org/2000/svg" xmlns:xlink="http://www.w3.org/1999/xlink" width="100" height="100" viewBox="0 0 100 100"><defs><style>.cat-a{fill:#e5e5e5;}.cat-b{clip-path:url(#a);}.cat-c{fill:#ffc850;}.cat-d{fill:#ebaf4b;}.cat-e{fill:#ffdc64;}.cat-f{fill:#ff8087;}.cat-g{fill:#5d5360;}.cat-h{fill:#e1a546;}.cat-i{fill:#4b3f4e;}.cat-j{fill:#fff;}.cat-k{fill:#e6646e;}</style><clipPath id="a"><circle class="cat-a" cx="50" cy="50" r="50" transform="translate(131 589)"/></clipPath></defs><g class="cat-b" transform="translate(-131 -589)"><g transform="translate(145 603.786)"><path class="cat-c" d="M77.761.513a2.272,2.272,0,0,1,3.705,1.763V32.722L56.472,17.953Z" transform="translate(-16.387 0)"/><path class="cat-d" d="M82.378,34.6,67.159,25.611l12.68-14.3a1.452,1.452,0,0,1,2.539.964Z" transform="translate(-19.57 -3.224)"/><path class="cat-c" d="M11.635.513A2.272,2.272,0,0,0,7.93,2.276V32.722L32.924,17.953Z" transform="translate(-1.928 0)"/><path class="cat-d" d="M11.166,34.6l15.218-8.993L13.7,11.316a1.452,1.452,0,0,0-2.539.964Z" transform="translate(-2.892 -3.224)"/><ellipse class="cat-e" cx="31.811" cy="30.107" rx="31.811" ry="30.107" transform="translate(3.729 10)"/><path class="cat-f" d="M52.616,82.855v2.272a4.544,4.544,0,0,1-4.544,4.544h0a4.544,4.544,0,0,1-4.544-4.544V82.855l4.544-2.272Z" transform="translate(-12.531 -24.003)"/><path class="cat-g" d="M50.9,67.161H45.879a1.288,1.288,0,0,0-1,2.1l2.509,3.1a1.289,1.289,0,0,0,2,0l2.509-3.1A1.288,1.288,0,0,0,50.9,67.161Z" transform="translate(-12.847 -20.005)"/><g transform="translate(47.044 48.312)"><path class="cat-h" d="M85.553,82a1.132,1.132,0,0,1-.523-.128C78.161,78.3,67.409,76.181,67.3,76.159a1.136,1.136,0,1,1,.435-2.23c.453.088,11.179,2.2,18.342,5.93A1.136,1.136,0,0,1,85.553,82Z" transform="translate(-66.383 -70.326)"/><path class="cat-h" d="M88.641,72.531a1.136,1.136,0,0,1-.3-.039C81.977,70.78,70.4,71.105,70.284,71.11a1.136,1.136,0,0,1-.069-2.271c.488-.015,12.032-.34,18.72,1.458a1.137,1.137,0,0,1-.295,2.234Z" transform="translate(-67.196 -68.807)"/></g><path class="cat-c" d="M44.458,72.352c-17.569,0-31.811-13.479-31.811-30.107,0-12.21,7.684-22.714,18.722-27.438C16.243,17.131,4.694,29.545,4.694,44.517c0,16.628,14.242,30.107,31.811,30.107a33.2,33.2,0,0,0,13.089-2.669A33.784,33.784,0,0,1,44.458,72.352Z" transform="translate(-0.964 -4.41)"/><g transform="translate(1.457 48.312)"><path class="cat-h" d="M5.831,82a1.136,1.136,0,0,1-.525-2.144c7.164-3.725,17.89-5.841,18.342-5.93a1.136,1.136,0,0,1,.435,2.23c-.108.021-10.86,2.144-17.729,5.716A1.131,1.131,0,0,1,5.831,82Z" transform="translate(-2.421 -70.327)"/><path class="cat-h" d="M2.593,72.532A1.137,1.137,0,0,1,2.3,70.3c6.689-1.8,18.231-1.472,18.72-1.458a1.136,1.136,0,0,1-.069,2.271c-.116,0-11.7-.33-18.061,1.382A1.137,1.137,0,0,1,2.593,72.532Z" transform="translate(-1.457 -68.808)"/></g><path class="cat-i" d="M29.705,58.447h0a3.988,3.988,0,0,1-3.976-3.976V52.2a3.988,3.988,0,0,1,3.976-3.976h0A3.988,3.988,0,0,1,33.681,52.2V54.47A3.988,3.988,0,0,1,29.705,58.447Z" transform="translate(-7.23 -14.364)"/><path class="cat-g" d="M31.151,48.222a3.88,3.88,0,0,0-.568.058V53.9a2.272,2.272,0,0,0,4.544,0V52.2A3.988,3.988,0,0,0,31.151,48.222Z" transform="translate(-8.676 -14.364)"/><circle class="cat-j" cx="1.704" cy="1.704" r="1.704" transform="translate(20.772 34.995)"/><path class="cat-i" d="M66.921,58.447h0a3.988,3.988,0,0,1-3.976-3.976V52.2a3.988,3.988,0,0,1,3.976-3.976h0A3.988,3.988,0,0,1,70.9,52.2V54.47A3.988,3.988,0,0,1,66.921,58.447Z" transform="translate(-18.315 -14.364)"/><path class="cat-g" d="M68.367,48.222a3.88,3.88,0,0,0-.568.058V53.9a2.272,2.272,0,0,0,4.544,0V52.2A3.988,3.988,0,0,0,68.367,48.222Z" transform="translate(-19.761 -14.364)"/><circle class="cat-j" cx="1.704" cy="1.704" r="1.704" transform="translate(46.901 34.995)"/><path class="cat-i" d="M49.267,72.411l-2.509-4.966a2.51,2.51,0,0,1-.105-.284h-.773a1.288,1.288,0,0,0-1,2.1l2.509,3.1a1.274,1.274,0,0,0,1.9.08C49.281,72.431,49.273,72.423,49.267,72.411Z" transform="translate(-12.847 -20.005)"/><path class="cat-k" d="M48.072,80.583l-4.544,2.272v2.272a4.525,4.525,0,0,0,.132,1.043,10.237,10.237,0,0,0,3.276-.981v1.074a1.136,1.136,0,1,0,2.272,0V85.19a10.236,10.236,0,0,0,3.276.981,4.526,4.526,0,0,0,.132-1.043V82.855Z" transform="translate(-12.531 -24.003)"/><path class="cat-d" d="M50.861,83.732a7.9,7.9,0,0,1-4.478-1.381,2.176,2.176,0,0,0-2.406,0A7.934,7.934,0,0,1,34.2,81.7,1.137,1.137,0,0,1,35.714,80a5.779,5.779,0,0,0,6.981.471,4.436,4.436,0,0,1,4.97,0A5.783,5.783,0,0,0,54.647,80,1.136,1.136,0,1,1,56.164,81.7,7.936,7.936,0,0,1,50.861,83.732Z" transform="translate(-9.639 -23.744)"/></g></g></svg>