<svg xmlns="http://www.w3.org/2000/svg" width="89.958" height="90.774" viewBox="0 0 89.958 90.774"><defs><style>.chat-a{fill:#fbc4ac;}.chat-b{fill:#e3b098;}.chat-c{fill:#3a484a;}.chat-d{fill:#f98084;}.chat-e{fill:#c86d5c;}.chat-f{fill:#ad4f3d;}.chat-g{fill:#323e40;}.chat-h{fill:#58b78c;}.chat-i{fill:#efedee;}.chat-j{fill:#f2c42c;}</style></defs><g transform="translate(-0.5)"><path class="chat-a" d="M279.691,29.5c-12.26,0-22.2,6.481-22.2,18.984a22.2,22.2,0,1,0,44.395,0C301.887,35.981,291.95,29.5,279.691,29.5Zm0,0" transform="translate(-211.429 -24.27)"/><path class="chat-b" d="M261.875,31.531A22.474,22.474,0,0,1,281.882,9a21.824,21.824,0,0,0-2.191-.11,22.42,22.42,0,0,0-22.2,22.637,22.42,22.42,0,0,0,22.2,22.636q1.109,0,2.191-.109A22.475,22.475,0,0,1,261.875,31.531Zm0,0" transform="translate(-211.429 -7.318)"/><path class="chat-c" d="M443.077,139.954a1.369,1.369,0,0,1-1.37-1.37v-2.3a1.37,1.37,0,1,1,2.74,0v2.3A1.369,1.369,0,0,1,443.077,139.954Zm0,0" transform="translate(-362.984 -110.995)"/><path class="chat-d" d="M437.374,169.7h-3.133a1.37,1.37,0,1,1,0-2.74h3.133a1.37,1.37,0,0,1,0,2.74Zm0,0" transform="translate(-355.714 -137.363)"/><path class="chat-c" d="M309.6,139.954a1.369,1.369,0,0,1-1.37-1.37v-2.3a1.37,1.37,0,0,1,2.74,0v2.3A1.369,1.369,0,0,1,309.6,139.954Zm0,0" transform="translate(-253.169 -110.995)"/><path class="chat-d" d="M303.894,169.7H300.76a1.37,1.37,0,1,1,0-2.74h3.133a1.37,1.37,0,1,1,0,2.74Zm0,0" transform="translate(-245.899 -137.363)"/><path class="chat-c" d="M366.516,164.626a4.169,4.169,0,0,1-3.148-1.4,1.37,1.37,0,0,1,2.063-1.8,1.492,1.492,0,0,0,2.17,0,1.37,1.37,0,0,1,2.062,1.8A4.168,4.168,0,0,1,366.516,164.626Zm0,0" transform="translate(-298.255 -132.414)"/><path class="chat-e" d="M300.825,17.277c-1.524-18.558-9.007-15.7-21.134-15.7-9.168,0-13.571-.918-15.446-1.5a1.606,1.606,0,0,0-1.914.8c-1.5,2.939-4.838,10.888-4.838,23.336,0,0,5.309-9.561,22.2-9.561C287.547,14.653,286.89,17.277,300.825,17.277Zm0,0" transform="translate(-211.429 0)"/><path class="chat-f" d="M266.714.877a1.521,1.521,0,0,1,.117-.192,22.13,22.13,0,0,1-2.587-.612,1.606,1.606,0,0,0-1.914.8c-1.5,2.939-4.838,10.888-4.838,23.336a16.089,16.089,0,0,1,4.542-4.622c.679-9.806,3.376-16.158,4.68-18.714Zm0,0" transform="translate(-211.429)"/><path class="chat-c" d="M.59,379.375v14.593a7.136,7.136,0,0,0,6.347,7.092l10.489,1.167Zm0,0" transform="translate(-0.074 -312.114)"/><path class="chat-c" d="M172.687,379.375v14.593a7.135,7.135,0,0,1-6.347,7.092l-10.489,1.167Zm0,0" transform="translate(-127.809 -312.114)"/><path class="chat-a" d="M44.878,299.849v0L22.2,282.711.518,299.851l0,0c-.01.292-.016.582-.016.876a22.42,22.42,0,0,0,22.2,22.637,22.42,22.42,0,0,0,22.2-22.637Q44.895,300.286,44.878,299.849Zm0,0" transform="translate(0 -232.588)"/><path class="chat-b" d="M4.188,375.309a23.071,23.071,0,0,1-3.67.723l0,0c-.01.292-.016.582-.016.876a22.42,22.42,0,0,0,22.2,22.637c.634,0,1.26-.028,1.88-.082C13.554,398.454,4.8,388.137,4.188,375.309Zm0,0" transform="translate(0 -308.769)"/><path class="chat-c" d="M52.6,387.7a1.37,1.37,0,0,1-1.37-1.37v-2.3a1.37,1.37,0,1,1,2.74,0v2.3A1.369,1.369,0,0,1,52.6,387.7Zm0,0" transform="translate(-41.739 -314.814)"/><path class="chat-d" d="M46.9,417.447H43.768a1.37,1.37,0,0,1,0-2.74H46.9a1.37,1.37,0,0,1,0,2.74Zm0,0" transform="translate(-34.47 -341.182)"/><path class="chat-c" d="M186.085,387.7a1.37,1.37,0,0,1-1.37-1.37v-2.3a1.37,1.37,0,0,1,2.74,0v2.3A1.369,1.369,0,0,1,186.085,387.7Zm0,0" transform="translate(-151.555 -314.814)"/><path class="chat-d" d="M180.382,417.447h-3.133a1.37,1.37,0,0,1,0-2.74h3.133a1.37,1.37,0,0,1,0,2.74Zm0,0" transform="translate(-144.285 -341.182)"/><path class="chat-c" d="M109.523,412.371a4.167,4.167,0,0,1-3.148-1.405,1.37,1.37,0,0,1,2.063-1.8,1.491,1.491,0,0,0,2.17,0,1.37,1.37,0,0,1,2.063,1.8A4.17,4.17,0,0,1,109.523,412.371Zm0,0" transform="translate(-86.826 -336.236)"/><path class="chat-c" d="M.59,278.4l0,0c11.913-1.318,22.179-12.825,22.179-12.825s10.266,11.507,22.18,12.825v0a22.4,22.4,0,0,0-22.181-21.76A22.4,22.4,0,0,0,.59,278.4Zm0,0" transform="translate(-0.074 -211.14)"/><path class="chat-g" d="M24.689,256.726c-.632-.055-1.272-.085-1.918-.085A22.4,22.4,0,0,0,.59,278.4h0a20.728,20.728,0,0,0,3.67-.723A22.682,22.682,0,0,1,24.689,256.726Zm0,0" transform="translate(-0.074 -211.14)"/><path class="chat-h" d="M36.444,69.475V55.792a8.851,8.851,0,0,0-8.851-8.851H9.351A8.851,8.851,0,0,0,.5,55.792V68.3a8.85,8.85,0,0,0,8.851,8.85H40.683Zm0,0" transform="translate(0 -38.619)"/><g transform="translate(7.548 15.803)"><path class="chat-i" d="M60.732,91.876H41.624a1.37,1.37,0,0,1,0-2.74H60.732a1.37,1.37,0,0,1,0,2.74Zm0,0" transform="translate(-40.254 -89.137)"/><path class="chat-i" d="M60.732,127.138H41.624a1.37,1.37,0,1,1,0-2.74H60.732a1.37,1.37,0,1,1,0,2.74Zm0,0" transform="translate(-40.254 -118.147)"/><path class="chat-i" d="M53.541,162.4H41.624a1.37,1.37,0,0,1,0-2.74H53.541a1.37,1.37,0,1,1,0,2.74Zm0,0" transform="translate(-40.254 -147.16)"/></g><path class="chat-j" d="M285.485,321.67V307.987a8.85,8.85,0,0,1,8.851-8.85h18.243a8.85,8.85,0,0,1,8.851,8.85v12.5a8.851,8.851,0,0,1-8.851,8.851H281.246Zm0,0" transform="translate(-230.972 -246.102)"/><path class="chat-i" d="M365.388,344.072H346.28a1.37,1.37,0,0,1,0-2.74h19.108a1.37,1.37,0,0,1,0,2.74Zm0,0" transform="translate(-283.348 -280.816)"/><path class="chat-i" d="M365.388,379.333H346.28a1.37,1.37,0,0,1,0-2.74h19.108a1.37,1.37,0,0,1,0,2.74Zm0,0" transform="translate(-283.348 -309.826)"/><path class="chat-i" d="M398.759,414.6H386.843a1.37,1.37,0,1,1,0-2.74h11.917a1.37,1.37,0,1,1,0,2.74Zm0,0" transform="translate(-316.719 -338.839)"/></g></svg>