<svg xmlns="http://www.w3.org/2000/svg" xmlns:xlink="http://www.w3.org/1999/xlink" width="100" height="100" viewBox="0 0 100 100"><defs><style>.dog-a{fill:#e5e5e5;}.dog-b{clip-path:url(#a);}.dog-c{fill:#f5dcb4;}.dog-d{fill:#965a50;}.dog-e{fill:#4b3f4e;}.dog-f{fill:#5d5360;}.dog-g{fill:#fff;}.dog-h{fill:#824641;}.dog-i{fill:#e7c9a5;}.dog-j{fill:#bc8e78;}.dog-k{fill:#ff8087;}.dog-l{fill:#e6646e;}.dog-m{fill:#d4af91;}</style><clipPath id="a"><circle class="dog-a" cx="50" cy="50" r="50" transform="translate(241 589)"/></clipPath></defs><g class="dog-b" transform="translate(-241 -589)"><g transform="translate(250 597.846)"><path class="dog-c" d="M71.6,8.565H58.533C53.8,10.443,52.746,7.258,42.853,7.258s-10.943,3.185-15.68,1.307H14.108L12.366,41.394c1.089,12.9,9.092,19.926,15.407,22.485H57.934C64.249,61.32,72.253,54.3,73.341,41.394Z" transform="translate(-2.348 -0.306)"/><path class="dog-d" d="M69.355,8.258c14.712,4.4,6.7,27.112,16.176,36.929a2.6,2.6,0,0,0,4.33-1.091A38.663,38.663,0,0,0,91.241,32.1c-.163-7.676,2.94-8.166,2.94-8.166S90.261,5.645,78.5,5.645C74.581,5.645,69.355,8.258,69.355,8.258Z" transform="translate(-13.17)"/><path class="dog-e" d="M31.992,48.05h0a4.587,4.587,0,0,1-4.573-4.573V40.864a4.587,4.587,0,0,1,4.573-4.573h0a4.587,4.587,0,0,1,4.573,4.573v2.613A4.586,4.586,0,0,1,31.992,48.05Z" transform="translate(-5.207 -5.819)"/><path class="dog-f" d="M32.911,36.29a4.5,4.5,0,0,0-.653.066v6.467a2.613,2.613,0,0,0,5.226,0v-1.96A4.587,4.587,0,0,0,32.911,36.29Z" transform="translate(-6.126 -5.819)"/><circle class="dog-g" cx="1.96" cy="1.96" r="1.96" transform="translate(24.826 31.778)"/><path class="dog-e" d="M65.864,48.05h0a4.587,4.587,0,0,1-4.573-4.573V40.864a4.587,4.587,0,0,1,4.573-4.573h0a4.587,4.587,0,0,1,4.573,4.573v2.613A4.587,4.587,0,0,1,65.864,48.05Z" transform="translate(-11.639 -5.819)"/><path class="dog-f" d="M66.782,36.29a4.5,4.5,0,0,0-.653.066v6.467a2.613,2.613,0,1,0,5.226,0v-1.96A4.587,4.587,0,0,0,66.782,36.29Z" transform="translate(-12.558 -5.819)"/><circle class="dog-g" cx="1.96" cy="1.96" r="1.96" transform="translate(52.265 31.778)"/><path class="dog-h" d="M85.531,45.734a2.6,2.6,0,0,0,4.33-1.091,32.125,32.125,0,0,0,1.12-5.746c-2.569-1.28-4.761-5.365-6.11-12.289-2.45-12.576-5.88-19.6-15.516-17.8C84.067,13.209,76.058,35.918,85.531,45.734Z" transform="translate(-13.17 -0.547)"/><path class="dog-i" d="M27.773,64.185h6.193s-10.875-7.3-12.672-20.2c-3.5-25.1,3.158-32.611,8.912-34.528a7.3,7.3,0,0,1-3.032-.588H14.108L12.366,41.7C13.455,54.6,21.457,61.626,27.773,64.185Z" transform="translate(-2.348 -0.613)"/><path class="dog-d" d="M24.826,8.258c-14.712,4.4-6.7,27.113-16.176,36.929A2.6,2.6,0,0,1,4.32,44.1,38.663,38.663,0,0,1,2.94,32.1C3.1,24.428,0,23.938,0,23.938S3.92,5.645,15.68,5.645C19.6,5.645,24.826,8.258,24.826,8.258Z"/><path class="dog-h" d="M24.388,8.05c-1.326-.615-5.461-2.405-8.709-2.405C3.92,5.645,0,23.938,0,23.938s3.1.49,2.94,8.166c0,.1,0,.195,0,.3C10.458,3.875,22.012,7.049,24.388,8.05Z"/><ellipse class="dog-j" cx="14.373" cy="10.452" rx="14.373" ry="10.452" transform="translate(26.132 53.992)"/><path class="dog-k" d="M41.936,78.226v6.533a6.533,6.533,0,1,0,13.066,0V78.226Z" transform="translate(-7.963 -13.783)"/><path class="dog-l" d="M41.936,83.329a14.387,14.387,0,0,0,5.226-1.681v1.8a1.307,1.307,0,1,0,2.613,0V81.632A14.1,14.1,0,0,0,55,83.329v-5.1H41.936Z" transform="translate(-7.963 -13.783)"/><path class="dog-m" d="M54.205,63.71H37.219c-5.412,0-9.8,3.217-9.8,7.186s4.388,7.186,9.8,7.186a11.741,11.741,0,0,0,6.961-2.136,2.6,2.6,0,0,1,3.064,0,11.741,11.741,0,0,0,6.961,2.136c5.412,0,9.8-3.217,9.8-7.186S59.617,63.71,54.205,63.71Z" transform="translate(-5.207 -11.026)"/><path class="dog-f" d="M48.162,57.258c4.33,0,7.84,2.34,7.84,5.226,0,2.784-3.295,4.25-5.673,5.333a5.218,5.218,0,0,1-4.334,0c-2.378-1.084-5.673-2.55-5.673-5.333C40.323,59.6,43.832,57.258,48.162,57.258Z" transform="translate(-7.657 -9.801)"/><path class="dog-e" d="M44.2,61.148a6.089,6.089,0,0,1,.976-3.4c-2.849.783-4.855,2.65-4.855,4.832,0,2.784,3.295,4.249,5.673,5.333a5.22,5.22,0,0,0,4.334,0c.511-.233,1.065-.486,1.619-.763C48.734,66.579,44.569,64.455,44.2,61.148Z" transform="translate(-7.657 -9.893)"/></g></g></svg>