<svg xmlns="http://www.w3.org/2000/svg" xmlns:xlink="http://www.w3.org/1999/xlink" width="100" height="100" viewBox="0 0 100 100"><defs><style>.fox-a{fill:#e5e5e5;}.fox-b{clip-path:url(#a);}.fox-c{fill:#d26437;}.fox-d{fill:#b44632;}.fox-e{fill:#ebc9a0;}.fox-f{fill:#eb874b;}.fox-g{fill:#4b3f4e;}.fox-h{fill:#5d5360;}.fox-i{fill:#fff;}</style><clipPath id="a"><circle class="fox-a" cx="50" cy="50" r="50" transform="translate(351 589)"/></clipPath></defs><g class="fox-b" transform="translate(-351 -589)"><g transform="translate(364 601.93)"><path class="fox-c" d="M78.784.757a2.384,2.384,0,0,1,3.247,2.309,88.105,88.105,0,0,1-5.351,25.7L58.737,16.174C65.891,7.557,74.547,2.375,78.784.757Z" transform="translate(-15.414 0)"/><path class="fox-d" d="M66.846,21.622c4.663-7.594,11.7-14.845,13.923-16.138.9-.524,1.7.759,1.493,2.45a157.275,157.275,0,0,1-4.227,21.539Z" transform="translate(-17.542 -1.252)"/><path class="fox-c" d="M12.927.757A2.384,2.384,0,0,0,9.68,3.066a88.105,88.105,0,0,0,5.351,25.7l17.944-12.59C25.82,7.557,17.164,2.375,12.927.757Z" transform="translate(-2.54)"/><path class="fox-d" d="M27.658,21.622c-4.663-7.594-11.7-14.845-13.923-16.138-.9-.524-1.7.759-1.493,2.45a157.274,157.274,0,0,0,4.227,21.539Z" transform="translate(-3.204 -1.252)"/><g transform="translate(0 48.492)"><ellipse class="fox-e" cx="7.138" cy="4.758" rx="7.138" ry="4.758" transform="translate(29.741 15.466)"/><path class="fox-e" d="M28.551,84.567c-8.327-4.759-22.123-9.939-22.123-9.939l1.324-3.972c-.558-.265-4.381-.315-7.752.825l3.569-5.948H28.551Z" transform="translate(0 -65.533)"/><path class="fox-e" d="M61.29,84.567c8.327-4.759,22.123-9.939,22.123-9.939L82.09,70.656c.558-.265,4.381-.315,7.752.825l-3.569-5.948H61.29Z" transform="translate(-16.084 -65.533)"/></g><path class="fox-f" d="M36.879,18.759c17.341,0,32.228,17.375,36.825,40.179l.054.269s-8.774-9.071-18.291-4.238c-3.529,1.792-5.2,5.73-5.2,10.033,0,7.134-5.719,11.082-12.494,8.34a2.355,2.355,0,0,0-1.779,0C29.214,76.084,23.5,72.136,23.5,65c0-4.3-1.676-8.241-5.2-10.033C8.774,50.136,0,59.207,0,59.207l.054-.269C4.651,36.134,19.538,18.759,36.879,18.759Z" transform="translate(0 -4.766)"/><path class="fox-g" d="M31.583,60.111h0a4.176,4.176,0,0,1-4.164-4.164V53.568A4.176,4.176,0,0,1,31.583,49.4h0a4.176,4.176,0,0,1,4.164,4.164v2.379A4.176,4.176,0,0,1,31.583,60.111Z" transform="translate(-7.195 -12.809)"/><path class="fox-h" d="M32.853,49.4a4.093,4.093,0,0,0-.595.06v5.888a2.379,2.379,0,0,0,4.759,0V53.568A4.176,4.176,0,0,0,32.853,49.4Z" transform="translate(-8.465 -12.809)"/><circle class="fox-i" cx="1.784" cy="1.784" r="1.784" transform="translate(22.603 37.786)"/><path class="fox-g" d="M65.454,60.111h0a4.176,4.176,0,0,1-4.164-4.164V53.568A4.176,4.176,0,0,1,65.454,49.4h0a4.176,4.176,0,0,1,4.164,4.164v2.379A4.176,4.176,0,0,1,65.454,60.111Z" transform="translate(-16.084 -12.809)"/><path class="fox-h" d="M66.724,49.4a4.093,4.093,0,0,0-.595.06v5.888a2.379,2.379,0,0,0,4.759,0V53.568A4.176,4.176,0,0,0,66.724,49.4Z" transform="translate(-17.354 -12.809)"/><circle class="fox-i" cx="1.784" cy="1.784" r="1.784" transform="translate(47.586 37.786)"/><path class="fox-c" d="M48.387,91.228q.154-.058.31-.12a2.381,2.381,0,0,1,1.76,0q.155.062.31.12V86.5H48.387v4.727Z" transform="translate(-12.698 -22.544)"/><path class="fox-h" d="M48.189,76.824c2.666,0,4.827,1.766,4.827,3.946,0,2.1-2.029,3.208-3.493,4.026a2.681,2.681,0,0,1-2.669,0c-1.464-.818-3.493-1.925-3.493-4.026C43.362,78.59,45.523,76.824,48.189,76.824Z" transform="translate(-11.379 -20.004)"/><path class="fox-g" d="M49.372,84.787c-1.464-1.052-3.493-2.475-3.493-5.177a5.216,5.216,0,0,1,.615-2.43,4.062,4.062,0,0,0-3.131,3.682c0,2.1,2.029,3.208,3.493,4.026a2.681,2.681,0,0,0,2.669,0l.02-.012C49.487,84.843,49.427,84.828,49.372,84.787Z" transform="translate(-11.379 -20.098)"/><path class="fox-c" d="M36.879,18.759l-2.313.116C18.226,20.339,4.445,37.156.054,58.938L0,59.207s7.081-7.313,15.419-5.3C16.462,24.279,34.942,18.759,36.879,18.759Z" transform="translate(0 -4.766)"/></g></g></svg>