<svg xmlns="http://www.w3.org/2000/svg" width="85.958" height="93.411" viewBox="0 0 85.958 93.411"><defs><style>.idea-a{fill:#f7ef87;}.idea-b{fill:#efd176;}.idea-c{fill:#eea849;}.idea-d{fill:#eda1ab;}.idea-e{fill:#4e5660;}.idea-f{fill:#a3defe;}.idea-g{fill:#7acefa;}</style></defs><g transform="translate(-20.427)"><path class="idea-a" d="M165.991,119.709a25.856,25.856,0,1,0-42.471,19.811,8.774,8.774,0,0,1,3.133,6.72v3.53h26.965v-3.528a8.691,8.691,0,0,1,3.082-6.679A25.8,25.8,0,0,0,165.991,119.709Z" transform="translate(-76.729 -76.73)"/><path class="idea-b" d="M181.616,374.3a8.756,8.756,0,0,1,.088,1.221v3.53h26.965v-3.528a8.9,8.9,0,0,1,.087-1.222H181.616Z" transform="translate(-131.781 -306.014)"/><path class="idea-a" d="M29.235,225.157H23.419a2.992,2.992,0,1,1,0-5.985h5.815a2.992,2.992,0,0,1,0,5.985Z" transform="translate(0 -179.185)"/><path class="idea-b" d="M91.725,74.29a2.983,2.983,0,0,1-2.116-.876L85.5,69.3a2.993,2.993,0,0,1,4.232-4.232l4.112,4.112a2.993,2.993,0,0,1-2.116,5.109Z" transform="translate(-52.482 -52.482)"/><path class="idea-a" d="M242.59,11.8A2.992,2.992,0,0,1,239.6,8.808V2.992a2.992,2.992,0,0,1,5.985,0V8.808A2.992,2.992,0,0,1,242.59,11.8Z" transform="translate(-179.184)"/><path class="idea-b" d="M375.029,74.29a2.993,2.993,0,0,1-2.116-5.109l4.112-4.112a2.992,2.992,0,1,1,4.232,4.232l-4.112,4.112A2.982,2.982,0,0,1,375.029,74.29Z" transform="translate(-287.46 -52.481)"/><path class="idea-a" d="M435.7,225.157h-5.815a2.992,2.992,0,1,1,0-5.985H435.7a2.992,2.992,0,1,1,0,5.985Z" transform="translate(-332.31 -179.185)"/><path class="idea-c" d="M205.566,321.363a1.368,1.368,0,0,1-1.368-1.368c0-7.173-1.954-11.454-4.316-15.921a1.368,1.368,0,0,1,2.42-1.279c2.441,4.619,4.633,9.41,4.633,17.2A1.368,1.368,0,0,1,205.566,321.363Z" transform="translate(-146.585 -246.955)"/><path class="idea-c" d="M272.076,321.363a1.368,1.368,0,0,1-1.368-1.368c0-7.79,2.192-12.581,4.633-17.2a1.368,1.368,0,1,1,2.42,1.279c-2.361,4.467-4.315,8.748-4.315,15.921A1.369,1.369,0,0,1,272.076,321.363Z" transform="translate(-204.619 -246.955)"/><ellipse class="idea-d" cx="5.094" cy="4.057" rx="5.094" ry="4.057" transform="translate(44.318 39.173)"/><ellipse class="idea-d" cx="5.094" cy="4.057" rx="5.094" ry="4.057" transform="translate(71.932 39.173)"/><g transform="translate(48.896 34.884)"><path class="idea-e" d="M177.838,196.129a1.368,1.368,0,0,1-1.368-1.368v-2.187a1.368,1.368,0,1,1,2.737,0v2.187A1.368,1.368,0,0,1,177.838,196.129Z" transform="translate(-176.47 -191.206)"/><path class="idea-e" d="M240.68,207.418c0-2.538-1.839-2.777-4.107-2.777s-4.107.238-4.107,2.777a4.133,4.133,0,1,0,8.215,0Z" transform="translate(-222.249 -202.19)"/><path class="idea-e" d="M319.854,196.129a1.368,1.368,0,0,1-1.368-1.368v-2.187a1.368,1.368,0,1,1,2.737,0v2.187A1.368,1.368,0,0,1,319.854,196.129Z" transform="translate(-292.576 -191.206)"/><circle class="idea-e" cx="7.045" cy="7.045" r="7.045" transform="translate(7.465 44.437)"/></g><path class="idea-f" d="M184.86,400.339H153.733a3.783,3.783,0,0,0-3.639,4.815l.981,3.456a6.953,6.953,0,0,0,6.689,5.055h23.066a6.953,6.953,0,0,0,6.689-5.055l.981-3.456a3.783,3.783,0,0,0-3.639-4.815Z" transform="translate(-105.89 -327.299)"/><path class="idea-g" d="M153.733,400.338a3.783,3.783,0,0,0-3.639,4.815l.981,3.456a6.953,6.953,0,0,0,6.689,5.055h9.124c-2.592-2.313-5.054-7.851-4.714-13.327h-8.44Z" transform="translate(-105.89 -327.299)"/><path class="idea-g" d="M152.269,432.1h36.58l.776-2.737H151.493Z" transform="translate(-107.154 -351.027)"/></g></svg>