<svg xmlns="http://www.w3.org/2000/svg" xmlns:xlink="http://www.w3.org/1999/xlink" width="100" height="100" viewBox="0 0 100 100"><defs><style>.monkey-a{fill:#e5e5e5;}.monkey-b{clip-path:url(#a);}.monkey-c{fill:#965a50;}.monkey-d{fill:#ebc9a0;}.monkey-e{fill:#af6e5a;}.monkey-f{fill:#faebc8;}.monkey-g{fill:#f5dcb4;}.monkey-h{fill:#5d5360;}.monkey-i{fill:#4b3f4e;}.monkey-j{fill:#e6646e;}.monkey-k{fill:#fff;}.monkey-l{fill:#ff8087;}</style><clipPath id="a"><circle class="monkey-a" cx="50" cy="50" r="50" transform="translate(326 607)"/></clipPath></defs><g class="monkey-b" transform="translate(-326 -607)"><g transform="translate(335 615.849)"><circle class="monkey-c" cx="10.656" cy="10.656" r="10.656" transform="translate(0 25.592)"/><circle class="monkey-d" cx="6.66" cy="6.66" r="6.66" transform="translate(3.996 29.587)"/><circle class="monkey-c" cx="10.656" cy="10.656" r="10.656" transform="translate(61.278 25.592)"/><circle class="monkey-d" cx="6.66" cy="6.66" r="6.66" transform="translate(65.273 29.587)"/><path class="monkey-e" d="M73.078,42.551a15.249,15.249,0,0,1-2.124-7.636h0A27.973,27.973,0,0,0,53.636,9.054V4.277l-6.66,2.664L45.644,1.613a22.308,22.308,0,0,0-8.768,6.016,27.97,27.97,0,0,0-21.87,27.286,15.249,15.249,0,0,1-2.124,7.636,23.16,23.16,0,0,0-3.2,11.679c0,15.082,14.91,27.308,33.3,27.308s33.3-12.226,33.3-27.308A23.164,23.164,0,0,0,73.078,42.551Z" transform="translate(-1.685)"/><path class="monkey-c" d="M24.33,59a30.517,30.517,0,0,1,3.2-13.626,20.079,20.079,0,0,0,2.124-8.909c0-13.556,7.093-25.157,17.178-30.084L45.644,1.613a22.309,22.309,0,0,0-8.768,6.016,27.97,27.97,0,0,0-21.87,27.286,15.247,15.247,0,0,1-2.124,7.636,23.16,23.16,0,0,0-3.2,11.679c0,12.173,9.716,22.481,23.134,26.007A30.973,30.973,0,0,1,24.33,59Z" transform="translate(-1.685 0)"/><path class="monkey-f" d="M45.226,81.826c11.035,0,19.981-7.157,19.981-15.985a13.011,13.011,0,0,0-1.1-5.224,6.764,6.764,0,0,1,.979-7.08A11.982,11.982,0,0,0,47.821,37a3.881,3.881,0,0,1-5.191,0A11.982,11.982,0,0,0,25.368,53.537a6.764,6.764,0,0,1,.979,7.08,13.015,13.015,0,0,0-1.1,5.224C25.245,74.669,34.191,81.826,45.226,81.826Z" transform="translate(-3.931 -5.616)"/><path class="monkey-g" d="M25.245,65.87a13.592,13.592,0,0,0,2.827,8.166,30.433,30.433,0,0,1,1.709-23.013,20.079,20.079,0,0,0,2.124-8.909,37.732,37.732,0,0,1,.882-8.078c-.048.007-.094.006-.142.014a11.982,11.982,0,0,0-7.277,19.516,6.764,6.764,0,0,1,.979,7.08A13.013,13.013,0,0,0,25.245,65.87Z" transform="translate(-3.931 -5.645)"/><g transform="translate(34.634 49.568)"><path class="monkey-h" d="M45.93,63.674a1.324,1.324,0,0,1-.594-.141L42.672,62.2a1.332,1.332,0,0,1,1.192-2.383l2.664,1.332a1.332,1.332,0,0,1-.6,2.524Z" transform="translate(-41.935 -59.677)"/><path class="monkey-h" d="M52.946,63.674a1.332,1.332,0,0,1-.6-2.524l2.664-1.332A1.332,1.332,0,0,1,56.2,62.2l-2.664,1.332A1.327,1.327,0,0,1,52.946,63.674Z" transform="translate(-43.62 -59.677)"/></g><path class="monkey-i" d="M35.326,70.968A1.34,1.34,0,0,0,34,72.481c.827,5.907,6.429,10.475,13.216,10.475S59.6,78.388,60.427,72.481a1.34,1.34,0,0,0-1.33-1.514Z" transform="translate(-5.917 -12.075)"/><path class="monkey-j" d="M40.706,81.6a14.489,14.489,0,0,0,15.351,0,7.982,7.982,0,0,0-15.351,0Z" transform="translate(-7.087 -12.917)"/><path class="monkey-i" d="M34.641,51.26h0a4,4,0,0,1-4-4V45.932a4,4,0,0,1,4-4h0a4,4,0,0,1,4,4v1.332A4,4,0,0,1,34.641,51.26Z" transform="translate(-5.335 -7.02)"/><path class="monkey-h" d="M35.484,41.936V46.6a2,2,0,1,0,4,0v-.666A4,4,0,0,0,35.484,41.936Z" transform="translate(-6.178 -7.02)"/><circle class="monkey-k" cx="1.332" cy="1.332" r="1.332" transform="translate(27.974 36.248)"/><path class="monkey-i" d="M63.674,51.26h0a4,4,0,0,1-4-4V45.932a4,4,0,0,1,4-4h0a4,4,0,0,1,4,4v1.332A4,4,0,0,1,63.674,51.26Z" transform="translate(-10.39 -7.02)"/><path class="monkey-h" d="M64.516,41.936V46.6a2,2,0,1,0,4,0v-.666A4,4,0,0,0,64.516,41.936Z" transform="translate(-11.233 -7.02)"/><circle class="monkey-k" cx="1.332" cy="1.332" r="1.332" transform="translate(51.951 36.248)"/><path class="monkey-l" d="M49.719,84.641c.45,0,.893-.027,1.332-.067v-2.6a1.332,1.332,0,0,0-2.664,0v2.6C48.826,84.614,49.269,84.641,49.719,84.641Z" transform="translate(-8.424 -13.76)"/></g></g></svg>