<svg xmlns="http://www.w3.org/2000/svg" width="83.436" height="75.275" viewBox="0 0 83.436 75.275"><defs><style>.profit-a{fill:#444966;}.profit-b{fill:#48cfb7;}.profit-c{fill:#35b5a0;}.profit-d{fill:#2e344c;}.profit-e{fill:#fcab29;}.profit-f{fill:#dd8d19;}.profit-g{fill:#f2df33;}.profit-h{fill:#1b3d66;}</style></defs><g transform="translate(0 -25.04)"><g transform="translate(6.559 32.921)"><path class="profit-a" d="M65.079,85a1.23,1.23,0,0,1-.629-.173L49.044,75.706a1.237,1.237,0,1,1,1.26-2.13L65.711,82.7a1.238,1.238,0,0,1-.631,2.3Z" transform="translate(-47.103 -73.404)"/><path class="profit-a" d="M58.227,131.837H41.486a1.237,1.237,0,1,1,0-2.475h16.74a1.237,1.237,0,1,1,0,2.475Z" transform="translate(-40.249 -120.243)"/></g><path class="profit-b" d="M55.846,75.687,33.889,43.278l8.443-12.2a3.85,3.85,0,0,0-3.166-6.042H19.259a3.85,3.85,0,0,0-3.166,6.042l8.443,12.2L2.581,75.687A15,15,0,0,0,0,84.1H0a15,15,0,0,0,15,15H43.431a15,15,0,0,0,15-15h0A15,15,0,0,0,55.846,75.687Z"/><path class="profit-c" d="M213.879,75.687,191.923,43.278l8.443-12.2A3.85,3.85,0,0,0,197.2,25.04h-3.609c2.82,0,4.479,3.488,2.874,6.042l-7.665,12.2,19.933,32.409a16.09,16.09,0,0,1,2.343,8.41c0,8.282-6.1,15-13.614,15h4a15,15,0,0,0,12.414-23.406Z" transform="translate(-158.034)"/><path class="profit-d" d="M147.6,131.837H135.89a1.237,1.237,0,1,1,0-2.475H147.6a1.237,1.237,0,1,1,0,2.475Z" transform="translate(-112.71 -87.322)"/><path class="profit-e" d="M293.545,249.127a19.379,19.379,0,1,0,19.379,19.379A19.4,19.4,0,0,0,293.545,249.127Z" transform="translate(-229.488 -187.57)"/><path class="profit-f" d="M335.076,268.543a19.37,19.37,0,0,1-23.957,30.242,19.372,19.372,0,1,0,23.957-30.242Z" transform="translate(-260.419 -203.822)"/><circle class="profit-g" cx="13.065" cy="13.065" r="13.065" transform="translate(50.992 67.871)"/><path class="profit-e" d="M365.415,318.355h-3.244a1.636,1.636,0,0,1,0-3.272h4.757a1.222,1.222,0,1,0,0-2.444h-1.913v-1.275a1.222,1.222,0,0,0-2.444,0v1.275h-.4a4.08,4.08,0,0,0,0,8.16h3.244a1.636,1.636,0,1,1,0,3.271h-4.757a1.222,1.222,0,1,0,0,2.444h1.913v1.276a1.222,1.222,0,1,0,2.444,0v-1.276h.4a4.08,4.08,0,1,0,0-8.16Z" transform="translate(-299.736 -238.641)"/><g transform="translate(52.212 35.293)"><path class="profit-h" d="M328.261,130.8l-2.941-2.353-.01-.007a1.209,1.209,0,0,0-.163-.109l0,0a1.224,1.224,0,0,0-.173-.077l-.024-.009a1.227,1.227,0,0,0-.175-.044l-.031,0a1.216,1.216,0,0,0-.183-.015,1.235,1.235,0,0,0-.183.015l-.031,0a1.22,1.22,0,0,0-.175.044l-.024.009a1.2,1.2,0,0,0-.173.077l0,0a1.22,1.22,0,0,0-.163.109l-.01.007-2.941,2.353a1.222,1.222,0,0,0,1.527,1.909l.955-.764v11.205a1.222,1.222,0,0,0,2.444,0V131.948l.955.764a1.222,1.222,0,1,0,1.526-1.909Z" transform="translate(-320.394 -121.628)"/><path class="profit-h" d="M422.551,90.58l-2.941-2.353-.01-.007a1.21,1.21,0,0,0-.163-.109l0,0a1.229,1.229,0,0,0-.173-.077l-.024-.009a1.224,1.224,0,0,0-.174-.044l-.031,0a1.213,1.213,0,0,0-.183-.015,1.235,1.235,0,0,0-.183.015l-.031,0a1.215,1.215,0,0,0-.174.044l-.024.009a1.211,1.211,0,0,0-.173.077l0,0a1.222,1.222,0,0,0-.163.109l-.01.007-2.941,2.353a1.222,1.222,0,1,0,1.527,1.909l.955-.764V102.93a1.222,1.222,0,1,0,2.444,0V91.725l.955.764a1.222,1.222,0,1,0,1.526-1.909Z" transform="translate(-399.319 -87.96)"/></g></g></svg>