<svg xmlns="http://www.w3.org/2000/svg" width="89.189" height="77.148" viewBox="0 0 89.189 77.148"><defs><style>.target-a{fill:#ffd4a3;}.target-b{fill:#ffebd3;}.target-c{fill:#ff8a98;}.target-d{fill:#fd5c6f;}.target-e{fill:#73da8c;}.target-f{fill:#29ce69;}.target-g{fill:#dd6642;}</style></defs><g transform="translate(0 -0.5)"><path class="target-a" d="M288.6,12.831A33.786,33.786,0,0,0,262.744.5H252.621V77.648h10.123A33.788,33.788,0,0,0,288.6,65.317a40.8,40.8,0,0,0,9.2-26.243A40.8,40.8,0,0,0,288.6,12.831Zm0,0" transform="translate(-208.615)"/><path class="target-b" d="M132.708,52.667c0-19.72-14.352-35.707-32.057-35.707S68.594,32.947,68.594,52.667s14.353,35.707,32.057,35.707S132.708,72.388,132.708,52.667Zm0,0" transform="translate(-56.645 -13.593)"/><path class="target-a" d="M92.633,224.769v-2.831H68.594a38.672,38.672,0,0,0,4.44,18.142C81.572,226.626,92.633,224.769,92.633,224.769Zm0,0" transform="translate(-56.645 -182.863)"/><path class="target-c" d="M86.419,77.648a33.784,33.784,0,0,1-25.856-12.33,40.8,40.8,0,0,1-9.2-26.243,40.806,40.806,0,0,1,9.2-26.244,33.275,33.275,0,0,1,51.713,0,40.806,40.806,0,0,1,9.2,26.244,40.8,40.8,0,0,1-9.2,26.243A33.789,33.789,0,0,1,86.419,77.648Zm0-70.372a27.031,27.031,0,0,0-20.662,9.905,34.025,34.025,0,0,0-7.622,21.892,34.026,34.026,0,0,0,7.622,21.893,26.5,26.5,0,0,0,41.324,0A34.027,34.027,0,0,0,114.7,39.074a34.025,34.025,0,0,0-7.622-21.892A27.029,27.029,0,0,0,86.419,7.276Zm0,0" transform="translate(-42.413)"/><path class="target-d" d="M58.135,221.938H51.359a41.719,41.719,0,0,0,5.652,21.215,45.2,45.2,0,0,1,4.228-6.534A35.538,35.538,0,0,1,58.135,221.938Zm0,0" transform="translate(-42.413 -182.863)"/><path class="target-c" d="M150.66,128.341c-12.061,0-21.508-10.992-21.508-25.023S138.6,78.3,150.66,78.3s21.508,10.991,21.508,25.022S162.721,128.341,150.66,128.341Zm0-43.269c-8.261,0-14.732,8.015-14.732,18.247s6.471,18.247,14.732,18.247,14.733-8.014,14.733-18.247S158.921,85.072,150.66,85.072Zm0,0" transform="translate(-106.654 -64.245)"/><path class="target-d" d="M135.928,221.938h-6.776a29.3,29.3,0,0,0,1.468,9.258,32.81,32.81,0,0,1,5.889-4.071A23.068,23.068,0,0,1,135.928,221.938Zm0,0" transform="translate(-106.654 -182.863)"/><path class="target-c" d="M222.63,164.1c0-6.739-3.589-12.2-8.018-12.2s-8.018,5.463-8.018,12.2,3.59,12.2,8.018,12.2S222.63,170.835,222.63,164.1Zm0,0" transform="translate(-170.606 -125.022)"/><path class="target-e" d="M18.753,177.97l-2.961-6.16a5.5,5.5,0,0,0-4.954-3.114H2.967a2.963,2.963,0,0,0-2.626,4.337l2.582,4.938Zm0,0" transform="translate(0 -138.896)"/><path class="target-f" d="M18.753,221.938l-2.961,6.16a5.5,5.5,0,0,1-4.954,3.115H2.967a2.963,2.963,0,0,1-2.626-4.337l2.582-4.939Zm0,0" transform="translate(0 -182.863)"/><path class="target-g" d="M75.986,211.35H42.257a2.831,2.831,0,0,1,0-5.662h33.73a2.831,2.831,0,0,1,0,5.662Zm0,0" transform="translate(-32.558 -169.444)"/></g></svg>