<svg xmlns="http://www.w3.org/2000/svg" width="41.418" height="49" viewBox="0 0 41.418 49"><defs><style>.medal-a{fill:#e95454;}.medal-b{fill:#ed6362;}.medal-c{fill:#ffcc5b;}.medal-d{fill:#fdbc4b;}.medal-e{fill:#ffdb70;}.medal-f{fill:#fff;opacity:0.2;}.medal-g{fill:#ec9922;}</style></defs><g transform="translate(-39.592)"><path class="medal-a" d="M50.293,221.248l-10.7,20.161,9.717-.9,4.7,8.551,10.7-20.161Z" transform="translate(0 -200.064)"/><g transform="translate(48.432 21.184)"><path class="medal-b" d="M135.006,274.1a1.366,1.366,0,0,0-.642-1.75l-.616-.328a1.317,1.317,0,0,1,1.267-2.309l1.74.924a1.1,1.1,0,0,0,1.489-.463l.043-.083a1.039,1.039,0,0,0-.4-1.465l-5.206-2.762a1.371,1.371,0,0,1-.65-1.751,1.32,1.32,0,0,1,1.814-.607l4.829,2.563a1.111,1.111,0,0,0,1.5-.46l.028-.07.008-.015a1.156,1.156,0,0,0-.476-1.573l-2.709-1.437a1.37,1.37,0,0,1-.645-1.759,1.325,1.325,0,0,1,1.814-.607l2.992,1.589a1.117,1.117,0,0,0,1.517-.515.069.069,0,0,0,.008-.015.073.073,0,0,0,.008-.015,1.115,1.115,0,0,0-.424-1.544l-3.228-1.713a1.367,1.367,0,0,1-.642-1.746,1.32,1.32,0,0,1,1.814-.607l7.963,4.227L137.5,279.97l-2.949-5.36A1.253,1.253,0,0,0,135.006,274.1Z" transform="translate(-131.92 -252.155)"/><path class="medal-b" d="M224.22,221.248l10.7,20.161-9.717-.9-4.7,8.551L209.8,228.9Z" transform="translate(-202.343 -221.248)"/></g><path class="medal-a" d="M223.009,274.113a1.366,1.366,0,0,1,.642-1.75l.616-.328A1.317,1.317,0,0,0,223,269.727l-1.74.924a1.1,1.1,0,0,1-1.489-.463l-.043-.083a1.039,1.039,0,0,1,.4-1.465l5.207-2.764a1.37,1.37,0,0,0,.65-1.751,1.32,1.32,0,0,0-1.814-.607l-4.829,2.563a1.111,1.111,0,0,1-1.5-.46l-.028-.07-.008-.015a1.156,1.156,0,0,1,.476-1.573l2.709-1.437a1.371,1.371,0,0,0,.645-1.759,1.325,1.325,0,0,0-1.814-.607l-3,1.592a1.117,1.117,0,0,1-1.517-.515,1921686501.791,1921686501.791,0,0,0-.015-.031,1.115,1.115,0,0,1,.424-1.544l3.228-1.713a1.367,1.367,0,0,0,.642-1.746,1.32,1.32,0,0,0-1.814-.607l-7.963,4.227,10.7,20.161,2.949-5.36A1.275,1.275,0,0,1,223.009,274.113Z" transform="translate(-153.925 -230.986)"/><circle class="medal-c" cx="17.88" cy="17.88" r="17.88" transform="translate(42.422 0)"/><path class="medal-d" d="M89.941,28.5H78.61a1.61,1.61,0,0,1-1.6-1.6l.012-.11v-.025a1.675,1.675,0,0,1,1.678-1.69h7.853a1.986,1.986,0,0,0,2.021-1.812,1.92,1.92,0,0,0-1.91-2.008H78.341a1.619,1.619,0,0,1-1.592-1.69v-.049a1.619,1.619,0,0,1,1.592-1.69h8.7a1.982,1.982,0,0,0,2.008-1.8,1.913,1.913,0,0,0-1.91-2.008H80.769a17.877,17.877,0,0,0,0,33.071h8.093a1.982,1.982,0,0,0,2.008-1.8,1.912,1.912,0,0,0-1.91-2.007l-9.207,0a1.9,1.9,0,0,1-1.9-2.008,1.979,1.979,0,0,1,2.01-1.8h3.569a1.908,1.908,0,0,0-.055-3.815H77.965a1.591,1.591,0,0,1-1.592-1.6v-.135a1.507,1.507,0,0,1,1.506-1.6H89.83a1.985,1.985,0,0,0,2.021-1.8A1.914,1.914,0,0,0,89.941,28.5Z" transform="translate(-27.214 -12.674)"/><path class="medal-e" d="M135.347,78.964A12.762,12.762,0,1,1,148.11,66.2,12.778,12.778,0,0,1,135.347,78.964Z" transform="translate(-75.046 -48.323)"/><path class="medal-f" d="M242.789,66.55a12.769,12.769,0,0,0-12.031-12.726H229.57a1.512,1.512,0,0,0-1.532,1.373,1.46,1.46,0,0,0,1.457,1.532l7.023,0a1.452,1.452,0,0,1,1.451,1.532,1.509,1.509,0,0,1-1.533,1.376h-2.722a1.455,1.455,0,0,0,.041,2.909h4.127a1.213,1.213,0,0,1,1.213,1.223v.1a1.148,1.148,0,0,1-1.149,1.223h-9.114a1.515,1.515,0,0,0-1.541,1.373A1.46,1.46,0,0,0,228.747,68h8.64a1.227,1.227,0,0,1,1.222,1.223l-.009.084v.018a1.278,1.278,0,0,1-1.279,1.288h-5.99a1.516,1.516,0,0,0-1.541,1.382,1.465,1.465,0,0,0,1.457,1.532h6.344a1.235,1.235,0,0,1,1.213,1.288v.037a1.235,1.235,0,0,1-1.213,1.288h-6.638a1.513,1.513,0,0,0-1.532,1.373,1.459,1.459,0,0,0,1.457,1.532h1.751A12.784,12.784,0,0,0,242.789,66.55Z" transform="translate(-169.725 -48.67)"/><path class="medal-g" d="M172.846,96.085h-6.208l-1.92-5.9a.824.824,0,0,0-1.567,0l-1.918,5.9h-6.208a.824.824,0,0,0-.484,1.491l5.022,3.649-1.918,5.9a.824.824,0,0,0,1.268.921l5.022-3.649,5.022,3.649a.824.824,0,0,0,1.268-.921l-1.918-5.9,5.022-3.649A.824.824,0,0,0,172.846,96.085Z" transform="translate(-103.635 -81.032)"/></g></svg>