<svg xmlns="http://www.w3.org/2000/svg" width="375" height="80.264" viewBox="0 0 375 80.264">
  <g id="Groupe_279" data-name="Groupe 279" transform="translate(469.506 -89)" opacity="0.399">
    <g id="Groupe_278" data-name="Groupe 278" transform="translate(-469.506 89)">
      <rect id="Rectangle_727" data-name="Rectangle 727" width="374.616" height="80.099" transform="translate(0.215)" fill="#20c8ef"/>
      <path id="Tracé_220" data-name="Tracé 220" d="M121.264,47.526,56.107,82.457H205.042L139.883,47.526A19.7,19.7,0,0,0,121.264,47.526Z" transform="translate(41.449 -8.677)" fill="#fff" opacity="0.3"/>
      <g id="Groupe_172" data-name="Groupe 172" transform="translate(209.444 61.995)">
        <g id="Groupe_167" data-name="Groupe 167" transform="translate(10.499)">
          <path id="Tracé_221" data-name="Tracé 221" d="M134.942,72.4c-.458,0-.674-.371-.674-.829V62.407c0-.458.216-.827.674-.827s.674.369.674.827v9.162C135.616,72.026,135.4,72.4,134.942,72.4Z" transform="translate(-130.847 -59.171)" fill="#a67c52"/>
          <circle id="Ellipse_151" data-name="Ellipse 151" cx="4.095" cy="4.095" r="4.095" fill="#70b856"/>
        </g>
        <g id="Groupe_168" data-name="Groupe 168" transform="translate(20.998)">
          <path id="Tracé_222" data-name="Tracé 222" d="M141.112,72.4c-.458,0-.674-.371-.674-.829V62.407c0-.458.216-.827.674-.827s.674.369.674.827v9.162C141.786,72.026,141.57,72.4,141.112,72.4Z" transform="translate(-137.017 -59.171)" fill="#a67c52"/>
          <circle id="Ellipse_152" data-name="Ellipse 152" cx="4.095" cy="4.095" r="4.095" fill="#70b856"/>
        </g>
        <g id="Groupe_169" data-name="Groupe 169" transform="translate(31.498)">
          <path id="Tracé_223" data-name="Tracé 223" d="M147.282,72.4c-.456,0-.674-.371-.674-.829V62.407c0-.458.218-.827.674-.827s.674.369.674.827v9.162C147.956,72.026,147.74,72.4,147.282,72.4Z" transform="translate(-143.187 -59.171)" fill="#a67c52"/>
          <circle id="Ellipse_153" data-name="Ellipse 153" cx="4.095" cy="4.095" r="4.095" fill="#70b856"/>
        </g>
        <g id="Groupe_170" data-name="Groupe 170" transform="translate(41.997)">
          <path id="Tracé_224" data-name="Tracé 224" d="M153.452,72.4c-.456,0-.674-.371-.674-.829V62.407c0-.458.218-.827.674-.827s.674.369.674.827v9.162C154.126,72.026,153.91,72.4,153.452,72.4Z" transform="translate(-149.357 -59.171)" fill="#a67c52"/>
          <circle id="Ellipse_154" data-name="Ellipse 154" cx="4.095" cy="4.095" r="4.095" fill="#70b856"/>
        </g>
        <g id="Groupe_171" data-name="Groupe 171">
          <path id="Tracé_225" data-name="Tracé 225" d="M128.772,72.4c-.458,0-.674-.371-.674-.829V62.407c0-.458.216-.827.674-.827s.674.369.674.827v9.162C129.446,72.026,129.23,72.4,128.772,72.4Z" transform="translate(-124.677 -59.171)" fill="#a67c52"/>
          <circle id="Ellipse_155" data-name="Ellipse 155" cx="4.095" cy="4.095" r="4.095" fill="#70b856"/>
        </g>
      </g>
      <path id="Tracé_226" data-name="Tracé 226" d="M32.528,55.351-6.567,76.31H82.794L43.7,55.351A11.823,11.823,0,0,0,32.528,55.351Z" transform="translate(12.029 -2.531)" fill="#fff" opacity="0.3"/>
      <g id="Groupe_185" data-name="Groupe 185" transform="translate(264.615 26.027)">
        <path id="Tracé_227" data-name="Tracé 227" d="M180.5,43.929V40.316a1.4,1.4,0,0,0-1.486-1.289H165.349a1.4,1.4,0,0,0-1.486,1.289v3.613a1.4,1.4,0,0,1-1.486,1.291h0a1.4,1.4,0,0,0-1.486,1.291v44.1a1.4,1.4,0,0,0,1.486,1.291h26.14A1.4,1.4,0,0,0,190,90.608V46.51a1.4,1.4,0,0,0-1.486-1.291h-6.534A1.4,1.4,0,0,1,180.5,43.929Z" transform="translate(-160.892 -39.027)" fill="#e3e2e2"/>
        <g id="Groupe_174" data-name="Groupe 174" transform="translate(2.581 10.612)">
          <g id="Groupe_173" data-name="Groupe 173" transform="translate(7.797)">
            <rect id="Rectangle_729" data-name="Rectangle 729" width="8.355" height="3.063" fill="#77dbf2"/>
          </g>
          <path id="Tracé_228" data-name="Tracé 228" d="M163.37,45.264a.962.962,0,0,0-.961.961v1.138a.962.962,0,0,0,.961.963h6.279V45.264Z" transform="translate(-162.409 -45.263)" fill="#77dbf2"/>
          <path id="Tracé_229" data-name="Tracé 229" d="M178.507,45.264h-6.279v3.063h6.279a.963.963,0,0,0,.963-.963V46.225A.963.963,0,0,0,178.507,45.264Z" transform="translate(-155.52 -45.263)" fill="#77dbf2"/>
        </g>
        <g id="Groupe_176" data-name="Groupe 176" transform="translate(2.588 15.68)">
          <g id="Groupe_175" data-name="Groupe 175" transform="translate(7.797 0)">
            <rect id="Rectangle_730" data-name="Rectangle 730" width="8.355" height="3.063" fill="#77dbf2"/>
          </g>
          <path id="Tracé_230" data-name="Tracé 230" d="M163.374,48.242a.962.962,0,0,0-.961.963v1.138a.963.963,0,0,0,.961.963h6.279V48.242Z" transform="translate(-162.413 -48.242)" fill="#77dbf2"/>
          <path id="Tracé_231" data-name="Tracé 231" d="M178.511,48.242h-6.279v3.065h6.279a.964.964,0,0,0,.963-.963V49.205A.963.963,0,0,0,178.511,48.242Z" transform="translate(-155.524 -48.242)" fill="#77dbf2"/>
        </g>
        <g id="Groupe_178" data-name="Groupe 178" transform="translate(2.588 20.749)">
          <g id="Groupe_177" data-name="Groupe 177" transform="translate(7.797)">
            <rect id="Rectangle_731" data-name="Rectangle 731" width="8.355" height="3.063" fill="#77dbf2"/>
          </g>
          <path id="Tracé_232" data-name="Tracé 232" d="M163.374,51.221a.961.961,0,0,0-.961.961v1.14a.961.961,0,0,0,.961.961h6.279V51.221Z" transform="translate(-162.413 -51.221)" fill="#77dbf2"/>
          <path id="Tracé_233" data-name="Tracé 233" d="M178.511,51.221h-6.279v3.063h6.279a.963.963,0,0,0,.963-.961v-1.14A.963.963,0,0,0,178.511,51.221Z" transform="translate(-155.524 -51.221)" fill="#77dbf2"/>
        </g>
        <g id="Groupe_180" data-name="Groupe 180" transform="translate(2.588 25.818)">
          <g id="Groupe_179" data-name="Groupe 179" transform="translate(7.797)">
            <rect id="Rectangle_732" data-name="Rectangle 732" width="8.355" height="3.063" fill="#77dbf2"/>
          </g>
          <path id="Tracé_234" data-name="Tracé 234" d="M163.374,54.2a.961.961,0,0,0-.961.961V56.3a.962.962,0,0,0,.961.963h6.279V54.2Z" transform="translate(-162.413 -54.199)" fill="#77dbf2"/>
          <path id="Tracé_235" data-name="Tracé 235" d="M178.511,54.2h-6.279v3.063h6.279a.963.963,0,0,0,.963-.963V55.161A.963.963,0,0,0,178.511,54.2Z" transform="translate(-155.524 -54.199)" fill="#77dbf2"/>
        </g>
        <g id="Groupe_182" data-name="Groupe 182" transform="translate(2.588 30.886)">
          <g id="Groupe_181" data-name="Groupe 181" transform="translate(7.797 0)">
            <rect id="Rectangle_733" data-name="Rectangle 733" width="8.355" height="3.063" fill="#77dbf2"/>
          </g>
          <path id="Tracé_236" data-name="Tracé 236" d="M163.374,57.178a.962.962,0,0,0-.961.963V59.28a.961.961,0,0,0,.961.961h6.279V57.178Z" transform="translate(-162.413 -57.178)" fill="#77dbf2"/>
          <path id="Tracé_237" data-name="Tracé 237" d="M178.511,57.178h-6.279v3.063h6.279a.963.963,0,0,0,.963-.961V58.141A.963.963,0,0,0,178.511,57.178Z" transform="translate(-155.524 -57.178)" fill="#77dbf2"/>
        </g>
        <g id="Groupe_184" data-name="Groupe 184" transform="translate(2.588 35.955)">
          <g id="Groupe_183" data-name="Groupe 183" transform="translate(7.797)">
            <rect id="Rectangle_734" data-name="Rectangle 734" width="8.355" height="3.063" fill="#77dbf2"/>
          </g>
          <path id="Tracé_238" data-name="Tracé 238" d="M163.374,60.157a.961.961,0,0,0-.961.961v1.14a.961.961,0,0,0,.961.961h6.279V60.157Z" transform="translate(-162.413 -60.157)" fill="#77dbf2"/>
          <path id="Tracé_239" data-name="Tracé 239" d="M178.511,60.157h-6.279V63.22h6.279a.963.963,0,0,0,.963-.961v-1.14A.963.963,0,0,0,178.511,60.157Z" transform="translate(-155.524 -60.157)" fill="#77dbf2"/>
        </g>
      </g>
      <g id="Groupe_186" data-name="Groupe 186" transform="translate(343.779 23.673)">
        <path id="Tracé_240" data-name="Tracé 240" d="M219.083,37.947h0a.311.311,0,0,1-.318.3h-2.551a.311.311,0,0,1-.318-.3h0a.31.31,0,0,0-.318-.3h-2.129a1.345,1.345,0,0,0-1.377,1.31V86.719a1.345,1.345,0,0,0,1.377,1.312H233.64a1.345,1.345,0,0,0,1.377-1.312V38.954a1.345,1.345,0,0,0-1.377-1.31H219.4A.31.31,0,0,0,219.083,37.947Z" transform="translate(-212.072 -37.644)" fill="#e3e2e2"/>
        <path id="Tracé_241" data-name="Tracé 241" d="M229.373,43.184H215.031a1.046,1.046,0,1,1,0-2.091h14.341a1.046,1.046,0,0,1,0,2.091Z" transform="translate(-210.73 -35.224)" fill="#fab200"/>
        <path id="Tracé_242" data-name="Tracé 242" d="M229.373,46.112H215.031a1.046,1.046,0,1,1,0-2.093h14.341a1.047,1.047,0,0,1,0,2.093Z" transform="translate(-210.73 -33.171)" fill="#fab200"/>
        <path id="Tracé_243" data-name="Tracé 243" d="M229.373,49.037H215.031a1.046,1.046,0,1,1,0-2.091h14.341a1.046,1.046,0,0,1,0,2.091Z" transform="translate(-210.73 -31.117)" fill="#fab200"/>
        <path id="Tracé_244" data-name="Tracé 244" d="M229.373,51.963H215.031a1.046,1.046,0,1,1,0-2.091h14.341a1.046,1.046,0,0,1,0,2.091Z" transform="translate(-210.73 -29.065)" fill="#fab200"/>
        <path id="Tracé_245" data-name="Tracé 245" d="M229.373,54.89H215.031a1.046,1.046,0,1,1,0-2.091h14.341a1.046,1.046,0,0,1,0,2.091Z" transform="translate(-210.73 -27.011)" fill="#fab200"/>
        <path id="Tracé_246" data-name="Tracé 246" d="M229.373,57.816H215.031a1.046,1.046,0,1,1,0-2.091h14.341a1.046,1.046,0,0,1,0,2.091Z" transform="translate(-210.73 -24.958)" fill="#fab200"/>
        <path id="Tracé_247" data-name="Tracé 247" d="M229.373,60.742H215.031a1.046,1.046,0,1,1,0-2.091h14.341a1.046,1.046,0,0,1,0,2.091Z" transform="translate(-210.73 -22.905)" fill="#fab200"/>
      </g>
      <g id="Groupe_194" data-name="Groupe 194" transform="translate(321.881 33.452)">
        <rect id="Rectangle_735" data-name="Rectangle 735" width="18.865" height="39.886" rx="1.041" transform="translate(0 0)" fill="#e3e2e2"/>
        <g id="Groupe_193" data-name="Groupe 193" transform="translate(2.31 3.234)">
          <g id="Groupe_187" data-name="Groupe 187">
            <rect id="Rectangle_736" data-name="Rectangle 736" width="2.926" height="3.234" rx="0.269" fill="#70b856"/>
            <rect id="Rectangle_737" data-name="Rectangle 737" width="2.926" height="3.234" rx="0.269" transform="translate(3.773)" fill="#70b856"/>
            <rect id="Rectangle_738" data-name="Rectangle 738" width="2.926" height="3.234" rx="0.269" transform="translate(7.546)" fill="#70b856"/>
            <rect id="Rectangle_739" data-name="Rectangle 739" width="2.926" height="3.234" rx="0.269" transform="translate(11.319)" fill="#70b856"/>
          </g>
          <g id="Groupe_188" data-name="Groupe 188" transform="translate(0 4.312)">
            <rect id="Rectangle_740" data-name="Rectangle 740" width="2.926" height="3.234" rx="0.269" fill="#70b856"/>
            <rect id="Rectangle_741" data-name="Rectangle 741" width="2.926" height="3.234" rx="0.269" transform="translate(3.773)" fill="#70b856"/>
            <rect id="Rectangle_742" data-name="Rectangle 742" width="2.926" height="3.234" rx="0.269" transform="translate(7.546)" fill="#70b856"/>
            <rect id="Rectangle_743" data-name="Rectangle 743" width="2.926" height="3.234" rx="0.269" transform="translate(11.319)" fill="#70b856"/>
          </g>
          <g id="Groupe_189" data-name="Groupe 189" transform="translate(0 8.624)">
            <rect id="Rectangle_744" data-name="Rectangle 744" width="2.926" height="3.234" rx="0.269" fill="#70b856"/>
            <rect id="Rectangle_745" data-name="Rectangle 745" width="2.926" height="3.234" rx="0.269" transform="translate(3.773)" fill="#70b856"/>
            <rect id="Rectangle_746" data-name="Rectangle 746" width="2.926" height="3.234" rx="0.269" transform="translate(7.546)" fill="#70b856"/>
            <rect id="Rectangle_747" data-name="Rectangle 747" width="2.926" height="3.234" rx="0.269" transform="translate(11.319)" fill="#70b856"/>
          </g>
          <g id="Groupe_190" data-name="Groupe 190" transform="translate(0 12.936)">
            <rect id="Rectangle_748" data-name="Rectangle 748" width="2.926" height="3.234" rx="0.269" fill="#70b856"/>
            <rect id="Rectangle_749" data-name="Rectangle 749" width="2.926" height="3.234" rx="0.269" transform="translate(3.773)" fill="#70b856"/>
            <rect id="Rectangle_750" data-name="Rectangle 750" width="2.926" height="3.234" rx="0.269" transform="translate(7.546)" fill="#70b856"/>
            <rect id="Rectangle_751" data-name="Rectangle 751" width="2.926" height="3.234" rx="0.269" transform="translate(11.319)" fill="#70b856"/>
          </g>
          <g id="Groupe_191" data-name="Groupe 191" transform="translate(0 17.248)">
            <rect id="Rectangle_752" data-name="Rectangle 752" width="2.926" height="3.234" rx="0.269" fill="#70b856"/>
            <rect id="Rectangle_753" data-name="Rectangle 753" width="2.926" height="3.234" rx="0.269" transform="translate(3.773)" fill="#70b856"/>
            <rect id="Rectangle_754" data-name="Rectangle 754" width="2.926" height="3.234" rx="0.269" transform="translate(7.546)" fill="#70b856"/>
            <rect id="Rectangle_755" data-name="Rectangle 755" width="2.926" height="3.234" rx="0.269" transform="translate(11.319)" fill="#70b856"/>
          </g>
          <g id="Groupe_192" data-name="Groupe 192" transform="translate(0 21.56)">
            <rect id="Rectangle_756" data-name="Rectangle 756" width="2.926" height="3.234" rx="0.269" fill="#70b856"/>
            <rect id="Rectangle_757" data-name="Rectangle 757" width="2.926" height="3.234" rx="0.269" transform="translate(3.773)" fill="#70b856"/>
            <rect id="Rectangle_758" data-name="Rectangle 758" width="2.926" height="3.234" rx="0.269" transform="translate(7.546)" fill="#70b856"/>
            <rect id="Rectangle_759" data-name="Rectangle 759" width="2.926" height="3.234" rx="0.269" transform="translate(11.319)" fill="#70b856"/>
          </g>
        </g>
      </g>
      <g id="Groupe_202" data-name="Groupe 202" transform="translate(299.511 40.668)">
        <rect id="Rectangle_760" data-name="Rectangle 760" width="18.865" height="32.67" rx="1.041" transform="translate(0 0)" fill="#fff"/>
        <g id="Groupe_201" data-name="Groupe 201" transform="translate(2.31 3.084)">
          <g id="Groupe_195" data-name="Groupe 195">
            <rect id="Rectangle_761" data-name="Rectangle 761" width="2.926" height="1.748" rx="0.198" fill="#9795a3"/>
            <rect id="Rectangle_762" data-name="Rectangle 762" width="2.926" height="1.748" rx="0.198" transform="translate(3.773)" fill="#9795a3"/>
            <rect id="Rectangle_763" data-name="Rectangle 763" width="2.926" height="1.748" rx="0.198" transform="translate(7.546)" fill="#9795a3"/>
            <rect id="Rectangle_764" data-name="Rectangle 764" width="2.926" height="1.748" rx="0.198" transform="translate(11.319)" fill="#9795a3"/>
          </g>
          <g id="Groupe_196" data-name="Groupe 196" transform="translate(0 2.33)">
            <rect id="Rectangle_765" data-name="Rectangle 765" width="2.926" height="1.748" rx="0.198" fill="#9795a3"/>
            <rect id="Rectangle_766" data-name="Rectangle 766" width="2.926" height="1.748" rx="0.198" transform="translate(3.773)" fill="#9795a3"/>
            <rect id="Rectangle_767" data-name="Rectangle 767" width="2.926" height="1.748" rx="0.198" transform="translate(7.546)" fill="#9795a3"/>
            <rect id="Rectangle_768" data-name="Rectangle 768" width="2.926" height="1.748" rx="0.198" transform="translate(11.319)" fill="#9795a3"/>
          </g>
          <g id="Groupe_197" data-name="Groupe 197" transform="translate(0 4.66)">
            <rect id="Rectangle_769" data-name="Rectangle 769" width="2.926" height="1.748" rx="0.198" fill="#9795a3"/>
            <rect id="Rectangle_770" data-name="Rectangle 770" width="2.926" height="1.748" rx="0.198" transform="translate(3.773)" fill="#9795a3"/>
            <rect id="Rectangle_771" data-name="Rectangle 771" width="2.926" height="1.748" rx="0.198" transform="translate(7.546)" fill="#9795a3"/>
            <rect id="Rectangle_772" data-name="Rectangle 772" width="2.926" height="1.748" rx="0.198" transform="translate(11.319)" fill="#9795a3"/>
          </g>
          <g id="Groupe_198" data-name="Groupe 198" transform="translate(0 6.991)">
            <rect id="Rectangle_773" data-name="Rectangle 773" width="2.926" height="1.748" rx="0.198" fill="#9795a3"/>
            <rect id="Rectangle_774" data-name="Rectangle 774" width="2.926" height="1.748" rx="0.198" transform="translate(3.773)" fill="#9795a3"/>
            <rect id="Rectangle_775" data-name="Rectangle 775" width="2.926" height="1.748" rx="0.198" transform="translate(7.546)" fill="#9795a3"/>
            <rect id="Rectangle_776" data-name="Rectangle 776" width="2.926" height="1.748" rx="0.198" transform="translate(11.319)" fill="#9795a3"/>
          </g>
          <g id="Groupe_199" data-name="Groupe 199" transform="translate(0 9.321)">
            <rect id="Rectangle_777" data-name="Rectangle 777" width="2.926" height="1.748" rx="0.198" fill="#9795a3"/>
            <rect id="Rectangle_778" data-name="Rectangle 778" width="2.926" height="1.748" rx="0.198" transform="translate(3.773)" fill="#9795a3"/>
            <rect id="Rectangle_779" data-name="Rectangle 779" width="2.926" height="1.748" rx="0.198" transform="translate(7.546)" fill="#9795a3"/>
            <rect id="Rectangle_780" data-name="Rectangle 780" width="2.926" height="1.748" rx="0.198" transform="translate(11.319)" fill="#9795a3"/>
          </g>
          <g id="Groupe_200" data-name="Groupe 200" transform="translate(0 11.651)">
            <rect id="Rectangle_781" data-name="Rectangle 781" width="2.926" height="1.748" rx="0.198" fill="#9795a3"/>
            <rect id="Rectangle_782" data-name="Rectangle 782" width="2.926" height="1.748" rx="0.198" transform="translate(3.773)" fill="#9795a3"/>
            <rect id="Rectangle_783" data-name="Rectangle 783" width="2.926" height="1.748" rx="0.198" transform="translate(7.546)" fill="#9795a3"/>
            <rect id="Rectangle_784" data-name="Rectangle 784" width="2.926" height="1.748" rx="0.198" transform="translate(11.319)" fill="#9795a3"/>
          </g>
        </g>
      </g>
      <g id="Groupe_206" data-name="Groupe 206" transform="translate(5.755 37.761)">
        <g id="Groupe_203" data-name="Groupe 203" transform="translate(0)">
          <path id="Tracé_248" data-name="Tracé 248" d="M6.629,74.435c-.7,0-1.033-.568-1.033-1.269V59.131c0-.7.332-1.268,1.033-1.268s1.033.567,1.033,1.268V73.166C7.662,73.867,7.33,74.435,6.629,74.435Z" transform="translate(2.808 -37.546)" fill="#a67c52"/>
          <path id="Tracé_249" data-name="Tracé 249" d="M19.429,66.47a9.386,9.386,0,1,1-18.772,0c0-5.183,4.2-20.547,9.386-20.547S19.429,61.287,19.429,66.47Z" transform="translate(-0.657 -45.923)" fill="#70b856"/>
        </g>
        <g id="Groupe_204" data-name="Groupe 204" transform="translate(21.163)">
          <path id="Tracé_250" data-name="Tracé 250" d="M19.066,74.435c-.7,0-1.033-.568-1.033-1.269V59.131c0-.7.332-1.268,1.033-1.268s1.033.567,1.033,1.268V73.166C20.1,73.867,19.767,74.435,19.066,74.435Z" transform="translate(-9.629 -37.546)" fill="#a67c52"/>
          <path id="Tracé_251" data-name="Tracé 251" d="M31.866,66.47a9.386,9.386,0,0,1-18.772,0c0-5.183,4.2-20.547,9.386-20.547S31.866,61.287,31.866,66.47Z" transform="translate(-13.094 -45.923)" fill="#598e43"/>
        </g>
        <g id="Groupe_205" data-name="Groupe 205" transform="translate(44.39)">
          <path id="Tracé_252" data-name="Tracé 252" d="M32.715,74.435c-.7,0-1.031-.568-1.031-1.269V59.131c0-.7.332-1.268,1.031-1.268s1.033.567,1.033,1.268V73.166C33.748,73.867,33.416,74.435,32.715,74.435Z" transform="translate(-23.278 -37.546)" fill="#a67c52"/>
          <path id="Tracé_253" data-name="Tracé 253" d="M45.516,66.47a9.386,9.386,0,1,1-18.772,0c0-5.183,4.2-20.547,9.386-20.547S45.516,61.287,45.516,66.47Z" transform="translate(-26.744 -45.923)" fill="#70b856"/>
        </g>
      </g>
      <rect id="Rectangle_786" data-name="Rectangle 786" width="375" height="6.772" transform="translate(0 73.492)" fill="#e6e6e6"/>
      <g id="Groupe_272" data-name="Groupe 272" transform="translate(333.394 4.06)">
        <line id="Ligne_5" data-name="Ligne 5" y2="10.109" transform="translate(4.397 12.631)" fill="none" stroke="#fff" stroke-linecap="round" stroke-miterlimit="2.613" stroke-width="0.164" stroke-dasharray="0.739 0.492"/>
        <g id="Groupe_271" data-name="Groupe 271" transform="translate(0 0)">
          <path id="Tracé_380" data-name="Tracé 380" d="M210.366,5.549h0a4.476,4.476,0,0,0-4.4,4.554h0v0c-.007,2.978,2.512,5.224,3.783,6.153.286.209.505.351.616.42l.109-.068c.121-.08.3-.2.507-.354a12.069,12.069,0,0,0,1.547-1.346,7.089,7.089,0,0,0,2.233-4.805V10.1A4.478,4.478,0,0,0,210.366,5.549Z" transform="translate(-205.969 -5.549)" fill="#fab200"/>
          <path id="Tracé_381" data-name="Tracé 381" d="M208.926,11.739l-.906,1.568h1.811Z" transform="translate(-204.529 -1.206)" fill="#fab200"/>
        </g>
      </g>
      <g id="Groupe_275" data-name="Groupe 275" transform="translate(259.423 56.101)">
        <g id="Groupe_273" data-name="Groupe 273" transform="translate(0 0)">
          <path id="Tracé_382" data-name="Tracé 382" d="M170.178,62.425l-5.605-5.389a1.143,1.143,0,0,0-1.618,0l-5.605,5.389a1.489,1.489,0,0,0-.439,1.075V64.61l6.852-6.589,6.854,6.589V63.5A1.489,1.489,0,0,0,170.178,62.425Z" transform="translate(-156.91 -56.701)" fill="#fab200"/>
        </g>
        <path id="Tracé_383" data-name="Tracé 383" d="M156.91,64.066v8.717a1.336,1.336,0,0,0,1.247,1.411h11.212a1.336,1.336,0,0,0,1.247-1.411V64.066l-6.854-6.589Z" transform="translate(-156.91 -56.156)" fill="#fff"/>
        <g id="Groupe_274" data-name="Groupe 274" transform="translate(3.736 7.682)">
          <rect id="Rectangle_821" data-name="Rectangle 821" width="2.85" height="3.223" rx="0.343" fill="#77dbf2"/>
          <rect id="Rectangle_822" data-name="Rectangle 822" width="2.85" height="3.223" rx="0.343" transform="translate(3.385)" fill="#77dbf2"/>
          <rect id="Rectangle_823" data-name="Rectangle 823" width="2.85" height="3.223" rx="0.343" transform="translate(0 3.828)" fill="#77dbf2"/>
          <rect id="Rectangle_824" data-name="Rectangle 824" width="2.85" height="3.223" rx="0.343" transform="translate(3.385 3.828)" fill="#77dbf2"/>
        </g>
      </g>
      <path id="Tracé_389" data-name="Tracé 389" d="M160.324,13.654h.407a6.962,6.962,0,0,1,6.961-6.863h7.669a6.962,6.962,0,0,1,6.961,6.863h2.224a5.854,5.854,0,0,1,0,11.707H160.324a5.854,5.854,0,1,1,0-11.707Z" transform="translate(-35.788 -3.618)" fill="#fff" opacity="0.6"/>
    </g>
    <path id="Tracé_390" data-name="Tracé 390" d="M54.175,44.065h.271a4.632,4.632,0,0,1,4.63-4.565h5.1a4.632,4.632,0,0,1,4.63,4.565h1.479a3.893,3.893,0,1,1,0,7.787H54.175a3.893,3.893,0,1,1,0-7.787Z" transform="translate(-286.042 69.332)" fill="#fff" opacity="0.6"/>
  </g>
</svg>
