<svg xmlns="http://www.w3.org/2000/svg" width="18.402" height="18.402" viewBox="0 0 18.402 18.402"><defs><style>.close-a{fill:#5c747b;}</style></defs><path class="close-a" d="M9.2,0a9.2,9.2,0,1,0,9.2,9.2A9.211,9.211,0,0,0,9.2,0Zm0,17.694A8.493,8.493,0,1,1,17.694,9.2,8.5,8.5,0,0,1,9.2,17.694Z"/><path class="close-a" d="M22.974,16.1a.353.353,0,0,0-.5,0l-2.935,2.935L16.6,16.1a.354.354,0,0,0-.5.5l2.935,2.935L16.1,22.474a.354.354,0,1,0,.5.5l2.935-2.935,2.935,2.935a.354.354,0,1,0,.5-.5l-2.935-2.935L22.974,16.6A.353.353,0,0,0,22.974,16.1Z" transform="translate(-10.338 -10.338)"/></svg>