<?xml version="1.0" encoding="utf-8"?>
<!-- Generator: Adobe Illustrator 23.0.6, SVG Export Plug-In . SVG Version: 6.00 Build 0)  -->
<svg version="1.1" id="Calque_1" xmlns="http://www.w3.org/2000/svg" xmlns:xlink="http://www.w3.org/1999/xlink" x="0px" y="0px"
	 viewBox="0 0 500 550" style="enable-background:new 0 0 500 550;" xml:space="preserve">
<style type="text/css">
	.st0{fill:#F8F8F8;}
	.st1{fill:#009AC4;}
	.st2{fill:#78B856;}
	.st3{fill:#F7AF00;}
	.st4{fill:#004A87;}
</style>
<circle id="Ellipse_6" class="st0" cx="246.7" cy="166.9" r="148.7"/>
<g id="Groupe_19" transform="translate(7.2 6.912)">
	<g id="Polygone_1" transform="translate(14.4)">
		<path class="st1" d="M279.6,97.2h-109l54.5-54.5L279.6,97.2z"/>
		<path class="st1" d="M225.1,45.7l-49.5,49.5h99L225.1,45.7 M225.1,39.8l59.5,59.5H165.7L225.1,39.8z"/>
	</g>
	<g id="Polygone_2" transform="translate(43.2 28.8) rotate(180)">
		<path class="st1" d="M-141.8-72.6h-109l54.5-54.5L-141.8-72.6z"/>
		<path class="st1" d="M-196.3-124.1l-49.5,49.5h99L-196.3-124.1 M-196.3-130l59.5,59.5h-118.9L-196.3-130z"/>
	</g>
	<g id="Polygone_3" transform="translate(57.6 14.4) rotate(90)">
		<path class="st2" d="M198.9-243.5h-109l54.5-54.5L198.9-243.5z"/>
		<path class="st2" d="M144.4-295l-49.5,49.5h99L144.4-295 M144.4-300.9l59.5,59.5H84.9L144.4-300.9z"/>
	</g>
	<g id="Tracé_391" transform="translate(43.2 57.6) rotate(180)">
		<path class="st3" d="M-141.8-162.7h-109l54.5-54.5L-141.8-162.7z"/>
		<path class="st3" d="M-196.3-214.3l-49.5,49.5h99L-196.3-214.3 M-196.3-220.1l59.5,59.5h-118.9L-196.3-220.1z"/>
	</g>
	<g id="Tracé_15" transform="translate(0 43.2) rotate(-90)">
		<path class="st4" d="M-61.1,178h-109l54.5-54.5L-61.1,178z"/>
		<path class="st4" d="M-115.6,126.4l-49.5,49.5h99L-115.6,126.4 M-115.6,120.6l59.5,59.5H-175L-115.6,120.6z"/>
	</g>
</g>
<g>
	<path class="st0" d="M69.4,457.4c-2-0.1-3.8-1.1-5.3-3.1c-1.5-2-2.9-4.6-4-7.9c-1.1-3.2-2.1-6.9-2.8-11c-0.8-4.1-1.4-8.3-1.9-12.5
		c-0.5-4.2-0.8-8.3-1-12.3c-0.2-4-0.2-7.5-0.2-10.6c0.1-4.8,0.5-9.8,1.1-14.9c0.7-5.1,1.5-9.9,2.3-14.5c0.8-4.5,1.7-8.5,2.5-12
		c0.8-3.5,1.5-6,1.9-7.4c0.6-2.3,1.3-3.9,2.3-4.8c1-0.8,2.8-1.3,5.4-1.5h2.9c0.8,0.1,1.6,0.2,2.4,0.2c0.8,0.1,1.5,0.3,2.2,0.6
		c-2.9,5.8-5.2,11.7-7,17.7c-1.8,6-3.1,11.9-4.1,17.9c-1,6-1.6,11.8-1.8,17.6c-0.2,5.8-0.3,11.4-0.1,16.8c0.2,4.3,0.4,8.2,0.7,11.9
		c0.3,3.7,0.8,7.4,1.6,11.2c0.7,3.7,1.6,5.8,2.5,6.4c1,0.6,2,0.2,3-1.1c1-1.3,2.1-3.3,3.1-5.8c1-2.5,1.9-5.1,2.6-7.7
		c0.5-1.7,1.2-4.1,2.2-7.3c1-3.2,2.1-6.7,3.3-10.6c1.2-3.9,2.5-7.9,3.8-12.1c1.3-4.2,2.6-8.1,3.7-11.7c1.1-3.6,2.1-6.7,3-9.4
		c0.8-2.7,1.4-4.4,1.8-5.3c0.5-1.3,1.1-3.1,2-5.4c0.8-2.3,1.8-4.7,2.8-7.3c1-2.5,2.1-5.1,3.1-7.6s2.1-4.8,3.1-6.7
		c1-1.9,2.1-2.9,3.3-3.3c1.2-0.3,2.4-0.1,3.6,0.5c1.2,0.7,2.3,1.7,3.3,3.1c1,1.4,1.9,2.8,2.6,4.2c-1,0.4-2.1,1.4-3.2,3s-2.1,3.2-3,5
		c-1,2.1-2.1,4.4-3,6.8c-0.6,1.8-1.5,4.1-2.5,7c-1,2.9-2.2,6.1-3.3,9.6c-1.2,3.5-2.4,7.1-3.6,10.8c-1.3,3.7-2.4,7.2-3.6,10.5
		c-1.1,3.3-2.2,6.3-3.1,8.9c-0.9,2.6-1.7,4.6-2.2,5.9c-0.8,1.9-1.7,4.2-2.8,6.7c-1,2.5-2.2,5.1-3.3,7.8c-1.2,2.7-2.4,5.3-3.6,7.9
		c-1.2,2.6-2.4,5-3.6,7.1c-1.7,3.1-3.1,5.3-4.3,6.7C72.8,456.7,71.3,457.4,69.4,457.4z"/>
	<path class="st0" d="M165.9,408.8c-2.4,3.6-5.2,7-8.2,10.3c-3.1,3.3-6.3,6.3-9.7,9c-3.4,2.6-6.9,4.7-10.5,6.4
		c-3.6,1.6-7.1,2.4-10.5,2.4c-1.8,0-3.7-0.4-5.7-1.3c-2.1-0.8-3.9-2.2-5.6-3.9c-1.7-1.8-3-4.1-4.1-6.9c-1-2.8-1.3-6.2-0.9-10.3
		c0.3-3.3,1.3-6.8,3.1-10.5c1.7-3.7,3.9-7,6.4-10.1c2.5-3.1,5.4-5.6,8.6-7.6c3.2-2,6.4-3,9.6-3c3.1,0,5.3,0.8,6.7,2.3
		c1.4,1.5,2,3.4,1.8,5.7c-0.2,2.5-0.9,4.8-2.1,6.9c-1.2,2.1-2.6,4-4.2,5.7c-1.6,1.7-3.3,3.2-5.1,4.6c-1.8,1.4-3.5,2.6-5.1,3.8
		c-1.8,1.2-3.5,2.4-5.1,3.4c-1.6,1.1-3,2.1-4.2,3c0.1,2,0.4,3.7,1.1,5.1c0.6,1.4,1.5,2.5,2.4,3.3c1,0.8,2.1,1.5,3.3,1.8
		c1.3,0.4,2.5,0.5,3.8,0.5c2.7,0,5.6-0.9,8.6-2.6c3-1.7,5.9-3.8,8.8-6.3c2.9-2.5,5.5-5,8-7.7c2.5-2.7,4.5-5,6.1-6.9
		c0.6-0.6,1.1-1,1.8-1.1s1.1,0,1.5,0.2c0.4,0.3,0.5,0.8,0.5,1.5C166.7,407.1,166.4,407.9,165.9,408.8z M134.9,390.2
		c-1,0-2.1,0.5-3.4,1.5c-1.3,1-2.6,2.4-3.9,4.2c-1.3,1.8-2.5,4-3.6,6.7c-1.1,2.6-2,5.6-2.5,9c1-0.7,2-1.5,3.1-2.2
		c1.1-0.8,2.3-1.6,3.4-2.5c3.5-2.7,5.9-5,7.3-7c1.4-2,2.1-3.8,2.3-5.2c0.2-1.5,0-2.6-0.5-3.3C136.5,390.5,135.8,390.2,134.9,390.2z"
		/>
	<path class="st0" d="M152.5,433.4c-0.6,0.9-1.2,1.5-1.9,1.8c-0.7,0.3-1.3,0.3-1.8,0.1c-0.5-0.2-0.9-0.6-1-1.3
		c-0.2-0.6,0-1.5,0.5-2.4c0.2-0.5,0.8-1.6,1.6-3.3c0.8-1.7,1.9-3.7,3-6.1c1.2-2.4,2.4-5,3.8-7.7s2.7-5.4,3.9-7.9
		c1.3-2.5,2.4-4.7,3.4-6.7c1-2,1.8-3.4,2.3-4.3c-0.9-0.8-1.5-1.4-1.8-1.8c-0.3-0.4-0.6-1.1-0.7-2.4c-0.2-1,0.1-2.4,0.7-4.1
		c0.6-1.7,1.5-3.3,2.5-4.9c1-1.6,2.2-2.9,3.5-4.1c1.3-1.1,2.5-1.7,3.8-1.7c2.3,0,3.9,0.7,4.8,2.2c0.9,1.5,1.5,2.9,1.6,4.5
		c0.2,1,0.1,2.4-0.2,4c-0.3,1.6-0.9,3.1-1.8,4.4c0.2,0.2,0.6,0.3,1,0.5c0.4,0.2,1,0.3,1.9,0.3c1.3,0,2.2-0.1,2.7-0.2
		c0.5-0.2,1.3-0.2,2.5-0.2c1.4,0,2.5,0.3,3.4,1c0.9,0.7,1.6,1.5,2.2,2.5c0.6,1,1,2.1,1.3,3.3c0.3,1.2,0.5,2.2,0.5,3.2
		c0.2,2-0.3,4.1-1.6,6.3c-1.3,2.2-2.9,4.6-4.7,7.1c-1.1,1.6-2.3,3.4-3.4,5.4c-1.1,2-1.6,3.8-1.5,5.4c0.2,1,0.4,1.9,0.8,2.5
		c0.4,0.6,1.5,1,3.4,1c1.4,0,2.9-0.5,4.5-1.5c1.7-1,3.3-2.3,5.1-3.9c1.7-1.6,3.4-3.3,5.1-5.2c1.7-1.9,3.3-3.8,4.7-5.6
		s2.7-3.4,3.7-4.9c1-1.5,1.8-2.5,2.2-3.1c0.4-0.6,0.9-1.1,1.6-1.3c0.6-0.2,1.2-0.2,1.7,0s0.8,0.7,0.9,1.5c0.1,0.7-0.2,1.7-0.9,2.9
		c-0.5,0.8-1.3,2.1-2.5,3.9c-1.2,1.8-2.6,3.8-4.2,5.9c-1.7,2.2-3.5,4.4-5.5,6.7c-2,2.3-4.1,4.4-6.4,6.3c-2.2,1.9-4.4,3.4-6.7,4.7
		c-2.2,1.2-4.3,1.8-6.4,1.8c-2.1,0-3.8-0.4-5.2-1.2c-1.4-0.8-2.5-1.8-3.3-3c-0.8-1.2-1.5-2.5-1.8-3.9c-0.4-1.4-0.5-2.7-0.4-3.9
		c0.1-1,0.3-2,0.8-3.1c0.4-1.1,1-2.2,1.6-3.4c0.6-1.2,1.3-2.3,1.9-3.5c0.7-1.2,1.3-2.3,1.9-3.4c1.4-2.3,2.5-4.3,3.3-6
		c0.8-1.7,1.3-3,1.3-4.2c0-0.7-0.2-1.4-0.5-1.9c-0.3-0.6-0.8-0.8-1.6-0.8c-0.5,0-0.8,0-1,0.1c-0.2,0-0.4,0.1-0.6,0.1
		c-0.2,0-0.5,0-0.8,0.1c-0.4,0-0.9,0.1-1.6,0.1c-1,0-1.9-0.2-2.7-0.5c-0.7-0.3-1.4-0.6-2.1-0.7c-0.3,0.6-1,1.8-2.2,3.6
		c-1.1,1.9-2.4,4-3.9,6.5c-1.5,2.5-3.1,5.1-4.7,7.9c-1.7,2.7-3.2,5.3-4.7,7.7c-1.5,2.4-2.7,4.4-3.7,6
		C153.4,432,152.8,433,152.5,433.4z"/>
	<path class="st0" d="M252.1,403.3c0.3-0.5,0.7-0.8,1.3-0.9c0.5-0.1,0.9-0.1,1.3,0.2c0.3,0.2,0.5,0.6,0.5,1.2c0,0.6-0.2,1.3-0.7,2.3
		c-1.6,3.1-3.7,6.4-6.4,9.9c-2.6,3.6-5.4,6.9-8.3,10c-2.9,3.1-5.7,5.7-8.5,7.7c-2.7,2-5,3-6.9,3c-2.7,0-4.9-0.5-6.7-1.6
		c-1.8-1-3.2-2.3-4.2-3.9c-1-1.5-1.7-3.2-2.1-5c-0.4-1.8-0.5-3.5-0.4-5c0.1-1.3,0.4-3.6,0.8-7c0.5-3.3,1.1-7.2,1.9-11.6
		c0.8-4.4,1.7-9.1,2.7-14.2c1-5,2.1-9.9,3.2-14.6c-1.4,0.2-2.7,0.3-4.1,0.5c-1.4,0.2-2.6,0.2-3.8,0.2c-2.6,0-5-0.3-7.3-0.9
		c-2.3-0.6-4-1.2-5.1-1.8c-0.6-0.3-0.9-0.8-0.8-1.4c0.1-0.6,0.3-1.2,0.7-1.8c0.4-0.6,0.9-1.1,1.5-1.6c0.6-0.4,1.1-0.7,1.6-0.7
		c1.5,0.2,3.2,0.3,5,0.4s3.7,0.1,5.8,0.1c1.5-0.1,3-0.2,4.4-0.4c1.4-0.2,2.8-0.4,4.2-0.6c1-3.9,2.1-7.2,3.1-10.1
		c1-2.9,1.9-4.9,2.7-6c0.2-0.4,0.8-0.7,1.6-1c0.8-0.3,1.8-0.5,2.7-0.6c1-0.1,1.9-0.1,2.8,0c0.9,0.1,1.5,0.4,1.9,0.9
		c0.4,0.6,0.6,2.3,0.5,5c-0.1,2.7-0.5,6-1.3,10.2c3.4,0,6.4,0.2,9,0.5c2.6,0.4,4.9,0.8,6.7,1.2c1.9,0.4,3.3,0.9,4.5,1.3
		c1.1,0.4,2,0.7,2.5,0.9c0.6,0.2,0.9,0.6,0.9,1.2c0,0.6-0.1,1.3-0.4,2c-0.3,0.7-0.7,1.3-1.4,1.8c-0.6,0.5-1.4,0.6-2.2,0.5
		c-0.8-0.1-1.7-0.2-2.7-0.5c-1-0.2-2.2-0.4-3.6-0.6c-1.4-0.2-3.1-0.3-5-0.5c-1.9-0.2-4.2-0.2-6.8-0.2c-0.5,0-1,0-1.6,0.1
		c-0.6,0-1.2,0.1-1.9,0.1c-0.3,1.3-0.6,2.6-0.9,3.8c-0.3,1.3-0.7,2.6-1.1,3.9c-1,3.2-2.3,6.7-3.6,10.5c-1.2,3.3-2.7,7.1-4.4,11.4
		c-1.7,4.3-3.6,8.8-5.7,13.7c-0.5,3.5-0.4,6.1,0.2,7.9c0.6,1.8,1.3,3.1,2.2,3.9c1,0.9,2.3,1.4,3.9,1.5c1.2,0.2,2.7-0.3,4.4-1.3
		c1.7-1,3.5-2.4,5.4-4.1c1.9-1.7,3.7-3.5,5.6-5.6c1.9-2,3.6-4,5.3-5.9c1.6-1.9,3-3.7,4.2-5.3C250.8,405.1,251.6,404,252.1,403.3z"/>
	<path class="st0" d="M294.6,435.9c-3.1,0-5.6-0.5-7.5-1.5c-1.9-1-3.4-2.2-4.5-3.6c-1.1-1.4-1.9-2.9-2.3-4.6
		c-0.4-1.6-0.7-3.2-0.7-4.5c0-2.4,0.2-5,0.6-7.7c0.4-2.7,0.9-5.2,1.5-7.5c0.6-2.3,1.1-4.3,1.5-5.9c0.4-1.6,0.7-2.6,0.9-3
		c0.7-2.3,1.7-4.4,2.8-6.1c1.2-1.7,2.8-2.9,4.9-3.6c0.8-0.2,1.7-0.3,2.5-0.5c0.7-0.1,1.5-0.1,2.2-0.1s1.5,0.1,2.1,0.4
		c-2.2,5.6-3.9,10.2-5.1,13.9c-1.3,3.7-2.2,6.7-2.8,9.1c-0.7,2.7-1.2,4.8-1.3,6.4c-0.4,3.6-0.1,6.4,1,8.2c1,1.9,3.2,2.8,6.4,2.8
		c2.1,0,4.1-0.8,6-2.4c1.9-1.6,3.7-3.6,5.3-6.1c-0.2-1.3-0.4-2.6-0.4-4c0-2.6,0.2-5.1,0.7-7.6c0.4-2.5,1-4.8,1.6-6.9
		c0.6-2.1,1.3-4.1,1.9-5.7s1.3-3,1.8-4c0.9-1.9,1.7-3.1,2.4-3.6c0.7-0.4,1.9-0.7,3.5-0.8c0.6-0.1,1.2-0.1,1.6-0.1
		c0.4,0,0.8,0.1,1.1,0.2c1,0.2,1.5,0.7,1.5,1.5c0,1.3-0.1,3.2-0.2,5.8c-0.2,2.6-0.6,5.2-1.5,8c-0.6,2.3-1.1,4.2-1.6,5.7
		c-0.5,1.6-1,2.9-1.5,4c-0.5,1.1-1,2-1.5,2.7c-0.5,0.7-0.9,1.3-1.3,1.9c0.2,2.4,0.4,4.4,0.6,5.8c0.2,1.5,0.5,2.6,0.9,3.3
		c0.4,0.8,0.8,1.3,1.3,1.6c0.5,0.3,1.1,0.4,1.8,0.4c1.1,0,2.5-0.5,4-1.6c1.5-1.1,3.1-2.5,4.8-4.1c1.7-1.7,3.3-3.5,5-5.4
		c1.7-2,3.2-3.9,4.5-5.6c1.4-1.8,2.5-3.3,3.5-4.7s1.6-2.2,1.8-2.5c0.6-0.7,1.1-1.2,1.6-1.3c0.5-0.2,0.9-0.1,1.3,0.2
		c0.3,0.3,0.5,0.7,0.5,1.3c0,0.6-0.1,1.3-0.5,2c-1.6,3.1-3.6,6.3-6,9.7c-2.4,3.4-4.9,6.6-7.6,9.5c-2.7,2.9-5.4,5.3-8.2,7.3
		c-2.7,1.9-5.3,2.9-7.7,2.9c-2.2,0-3.9-0.7-5.1-2.2c-1.3-1.5-2.3-3.6-3.2-6.5c-1.9,2.9-4,5.1-6.5,6.7
		C300.4,435.1,297.7,435.9,294.6,435.9z"/>
	<path class="st0" d="M373.6,437c-1.9,0-3.4-0.3-4.8-1c-1.3-0.7-2.4-1.6-3.2-2.7s-1.3-2.4-1.6-3.9c-0.2-1.5-0.2-3.1,0.2-4.8
		c0.2-1.1,0.6-2.6,1.2-4.5c0.6-1.9,1.1-4,1.8-6.2c0.6-2.2,1.2-4.4,1.7-6.7c0.5-2.2,0.9-4.2,1-6c0.2-1.8,0.1-3.3-0.2-4.5
		c-0.3-1.2-1-1.8-2.1-1.8c-1.3,0-2.6,0.4-4,1.3c-1.4,0.8-2.8,2-4.2,3.4s-2.8,3.1-4.2,5c-1.4,1.9-2.8,3.9-4.2,5.9
		c-0.7,2.7-1.3,5.1-1.8,7.2c-0.5,2.1-0.9,3.9-1.3,5.6c-0.4,1.7-0.7,3.1-1,4.4c-0.3,1.3-0.6,2.4-0.8,3.6c-0.2,0.8-1,1.6-2.2,2.4
		s-2.5,1.4-3.9,1.9c-1.4,0.5-2.6,0.7-3.6,0.7s-1.4-0.4-1.3-1.1c0.1-0.5,0.3-1.6,0.8-3.3s1-3.7,1.6-6c0.6-2.3,1.2-4.7,1.9-7.3
		c0.6-2.6,1.3-5,1.8-7.4c0.4-1.9,0.8-3.9,1.3-6.2c0.4-1.9,0.9-4.2,1.5-6.8c0.6-2.6,1.3-5.4,2.1-8.5c0.6-0.5,1.1-0.9,1.8-1.1
		c0.6-0.3,1.2-0.5,1.9-0.7c0.6-0.2,1.3-0.4,2.1-0.5c0.6,0,1.3,0,1.9,0.1c0.6,0.1,1.1,0.2,1.8,0.4c0.6,0.2,1.1,0.5,1.6,0.9
		c-0.2,0.6-0.5,1.4-0.8,2.4c-0.3,1-0.6,2.1-1,3.2c-0.3,1.3-0.7,2.6-1.2,4c1-1.5,2.2-2.9,3.6-4.4c1.3-1.5,2.8-2.8,4.4-4.1
		s3.2-2.2,5-3c1.8-0.8,3.6-1.1,5.4-1.1c1.5,0,2.9,0.4,4.1,1.3c1.2,0.9,2.2,2.1,2.8,3.7s1.1,3.4,1.2,5.6c0.1,2.2-0.2,4.6-0.9,7.1
		l-1.3,5.3c-0.4,1.7-0.9,3.7-1.5,6c-0.6,2.3-1.4,4.8-2.2,7.6c-0.5,1.8-0.7,3.3-0.5,4.6c0.1,1.3,0.9,1.9,2.4,1.9s3.3-0.9,5.5-2.7
		c2.2-1.8,4.5-3.9,6.7-6.4c2.3-2.5,4.4-5.1,6.4-7.7c2-2.6,3.5-4.7,4.6-6.4c0.7-1,1.4-1.7,2.1-2.1c0.6-0.3,1.1-0.4,1.5-0.1
		c0.4,0.2,0.5,0.8,0.5,1.6c0,0.8-0.3,1.9-1,3.2c-0.6,1.1-1.4,2.6-2.6,4.5c-1.2,1.9-2.6,3.8-4.2,5.9c-1.6,2.1-3.3,4.2-5.2,6.4
		c-1.9,2.1-3.8,4.1-5.8,5.8c-2,1.7-4,3.1-6,4.2C377.3,436.4,375.4,437,373.6,437z"/>
	<path class="st0" d="M449.7,408.8c-2.4,3.6-5.2,7-8.2,10.3c-3.1,3.3-6.3,6.3-9.7,9c-3.4,2.6-6.9,4.7-10.5,6.4
		c-3.6,1.6-7.1,2.4-10.5,2.4c-1.8,0-3.7-0.4-5.7-1.3c-2.1-0.8-3.9-2.2-5.6-3.9c-1.7-1.8-3-4.1-4.1-6.9c-1-2.8-1.3-6.2-0.9-10.3
		c0.3-3.3,1.4-6.8,3.1-10.5c1.7-3.7,3.9-7,6.4-10.1c2.5-3.1,5.4-5.6,8.6-7.6c3.2-2,6.4-3,9.6-3c3.1,0,5.3,0.8,6.7,2.3
		c1.4,1.5,2,3.4,1.8,5.7c-0.2,2.5-0.9,4.8-2.1,6.9c-1.2,2.1-2.6,4-4.2,5.7c-1.6,1.7-3.3,3.2-5.1,4.6c-1.8,1.4-3.5,2.6-5.1,3.8
		c-1.8,1.2-3.5,2.4-5.1,3.4c-1.6,1.1-3,2.1-4.2,3c0.1,2,0.4,3.7,1.1,5.1c0.6,1.4,1.5,2.5,2.4,3.3c1,0.8,2.1,1.5,3.3,1.8
		s2.5,0.5,3.8,0.5c2.7,0,5.6-0.9,8.6-2.6c3-1.7,5.9-3.8,8.8-6.3c2.9-2.5,5.5-5,8-7.7s4.5-5,6.1-6.9c0.6-0.6,1.1-1,1.8-1.1
		c0.6-0.1,1.1,0,1.5,0.2c0.4,0.3,0.5,0.8,0.5,1.5C450.6,407.1,450.3,407.9,449.7,408.8z M418.7,390.2c-1,0-2.1,0.5-3.4,1.5
		c-1.3,1-2.6,2.4-3.9,4.2c-1.3,1.8-2.5,4-3.6,6.7c-1.1,2.6-2,5.6-2.5,9c1-0.7,2-1.5,3.1-2.2c1.1-0.8,2.3-1.6,3.4-2.5
		c3.5-2.7,5.9-5,7.3-7c1.4-2,2.1-3.8,2.3-5.2c0.2-1.5,0-2.6-0.5-3.3C420.3,390.5,419.6,390.2,418.7,390.2z"/>
</g>
<g>
	<path class="st0" d="M85.9,474.8H91v35.3h-5.7v-21.9L76,510.1h-4.2l-9.4-21.7v21.7h-5.6v-35.3h5.1l12.1,27.6L85.9,474.8z"/>
	<path class="st0" d="M102.9,508.9c-1.9-1.1-3.4-2.6-4.5-4.5c-1-2-1.6-4.3-1.6-6.9c0-2.6,0.5-4.9,1.6-6.9c1-2,2.5-3.5,4.5-4.5
		s4.2-1.6,6.7-1.6c2.5,0,4.7,0.5,6.6,1.6c1.9,1.1,3.4,2.6,4.4,4.5c1,2,1.6,4.3,1.6,6.9c0,2.6-0.5,4.9-1.6,6.9c-1,2-2.5,3.5-4.4,4.5
		c-1.9,1.1-4.1,1.6-6.6,1.6C107.1,510.5,104.9,510,102.9,508.9z M114.4,503.6c1.1-1.4,1.7-3.4,1.7-6.1c0-2.7-0.6-4.7-1.7-6.1
		c-1.1-1.4-2.7-2.1-4.8-2.1c-2.1,0-3.7,0.7-4.8,2.1c-1.1,1.4-1.7,3.4-1.7,6.1c0,2.7,0.6,4.7,1.7,6.1s2.7,2.1,4.8,2.1
		C111.7,505.6,113.3,505,114.4,503.6z"/>
	<path class="st0" d="M147.7,486c1.7,1.1,3,2.6,3.9,4.5c0.9,1.9,1.4,4.2,1.4,6.8c0,2.6-0.5,4.9-1.4,6.9c-0.9,2-2.2,3.5-3.9,4.6
		c-1.7,1.1-3.6,1.6-5.7,1.6c-1.9,0-3.5-0.4-4.9-1.2c-1.4-0.8-2.5-1.9-3.2-3.3v4.1h-6.1v-36.5h6.1v15.2c0.8-1.4,1.8-2.5,3.3-3.2
		c1.4-0.8,3-1.2,4.9-1.2C144.1,484.4,146,485,147.7,486z M145,503.5c1.1-1.5,1.7-3.5,1.7-6.1c0-2.6-0.6-4.6-1.7-6
		c-1.1-1.4-2.7-2.1-4.8-2.1c-2.1,0-3.7,0.7-4.8,2.1c-1.1,1.4-1.7,3.4-1.7,6c0,2.6,0.6,4.7,1.7,6.1c1.1,1.4,2.7,2.1,4.9,2.1
		C142.3,505.6,143.9,504.9,145,503.5z"/>
	<path class="st0" d="M158,473.7h6.9v6.1H158V473.7z M158.4,510.1v-25h6.1v25H158.4z"/>
	<path class="st0" d="M171.3,510.1v-36.5h6.1v36.5H171.3z"/>
	<path class="st0" d="M183.8,473.7h6.9v6.1h-6.9V473.7z M184.2,510.1v-25h6.1v25H184.2z"/>
	<path class="st0" d="M205,489.7v11.2c0,2.9,1.4,4.4,4.1,4.4c0.8,0,1.6-0.1,2.5-0.4v4.9c-1.1,0.4-2.4,0.6-4,0.6
		c-2.8,0-5-0.8-6.5-2.4c-1.5-1.6-2.3-3.9-2.3-6.8v-11.5H194v-4.7h4.8V479l6.2-2.1v8.2h6.6v4.7H205z"/>
	<path class="st0" d="M237.8,497.9h-17.2c0.1,2.7,0.8,4.7,2,5.9c1.2,1.3,3,1.9,5.4,1.9c2.7,0,5.3-0.9,7.6-2.7l1.8,4.3
		c-1.2,1-2.7,1.7-4.4,2.3c-1.7,0.6-3.5,0.9-5.3,0.9c-4.1,0-7.3-1.2-9.7-3.5c-2.3-2.3-3.5-5.5-3.5-9.5c0-2.5,0.5-4.8,1.5-6.8
		c1-2,2.5-3.5,4.3-4.6c1.8-1.1,3.9-1.7,6.3-1.7c3.4,0,6.2,1.1,8.2,3.3c2,2.2,3,5.3,3,9.2V497.9z M222.8,490.3c-1,1-1.7,2.4-2,4.2
		h11.6c-0.2-1.9-0.8-3.3-1.7-4.3c-0.9-1-2.2-1.4-3.9-1.4C225.2,488.9,223.8,489.4,222.8,490.3z M228.7,481.9h-4l5-10.2h6.3
		L228.7,481.9z"/>
	<path class="st0" d="M257.1,474.8h13c5.8,0,10.3,1.5,13.5,4.6c3.2,3.1,4.8,7.4,4.8,13c0,5.6-1.6,10-4.8,13.1
		c-3.2,3.1-7.7,4.6-13.5,4.6h-13V474.8z M269.7,504.9c8.1,0,12.2-4.2,12.2-12.5c0-8.3-4.1-12.4-12.2-12.4h-6.2v24.9H269.7z"/>
	<path class="st0" d="M317.2,485.1v25h-6v-3.9c-0.8,1.4-1.9,2.4-3.2,3.2c-1.3,0.7-2.8,1.1-4.6,1.1c-6.1,0-9.2-3.4-9.2-10.3v-15.1
		h6.1v15.2c0,1.8,0.4,3.2,1.1,4s1.9,1.3,3.4,1.3c1.8,0,3.3-0.6,4.4-1.8c1.1-1.2,1.6-2.8,1.6-4.8v-13.9H317.2z"/>
	<path class="st0" d="M339.9,484.9l0,5.7c-1.1-0.4-2.1-0.6-3.3-0.6c-2.1,0-3.7,0.6-4.8,1.8c-1.1,1.2-1.7,2.8-1.7,4.9v13.5H324v-17.9
		c0-2.6-0.1-5-0.4-7.1h5.8l0.5,4.4c0.6-1.6,1.6-2.9,3-3.7s2.9-1.3,4.6-1.3C338.4,484.5,339.2,484.6,339.9,484.9z"/>
	<path class="st0" d="M366.9,485.1v25h-6.1v-4c-0.8,1.4-1.9,2.5-3.3,3.2c-1.4,0.8-3,1.2-4.9,1.2c-2.2,0-4.1-0.5-5.8-1.6
		c-1.7-1.1-3-2.6-3.9-4.5c-0.9-1.9-1.4-4.2-1.4-6.8c0-2.6,0.5-4.9,1.4-6.9c0.9-2,2.3-3.6,3.9-4.7c1.7-1.1,3.6-1.7,5.7-1.7
		c1.8,0,3.4,0.4,4.9,1.2c1.4,0.8,2.5,1.9,3.3,3.2v-3.8H366.9z M359.1,503.5c1.1-1.4,1.7-3.4,1.7-6c0-2.6-0.6-4.7-1.7-6.1
		c-1.1-1.4-2.7-2.1-4.8-2.1c-2,0-3.6,0.7-4.8,2.2c-1.1,1.5-1.7,3.5-1.7,6.1c0,2.6,0.6,4.6,1.7,5.9c1.1,1.4,2.8,2.1,4.8,2.1
		C356.4,505.6,358,504.9,359.1,503.5z"/>
	<path class="st0" d="M393.6,486c1.7,1.1,3,2.6,3.9,4.5c0.9,1.9,1.4,4.2,1.4,6.8c0,2.6-0.5,4.9-1.4,6.9c-0.9,2-2.3,3.5-3.9,4.6
		c-1.7,1.1-3.6,1.6-5.7,1.6c-1.9,0-3.5-0.4-4.9-1.2c-1.4-0.8-2.5-1.9-3.2-3.3v4.1h-6.1v-36.5h6.1v15.2c0.8-1.4,1.9-2.5,3.3-3.2
		c1.4-0.8,3-1.2,4.9-1.2C390,484.4,392,485,393.6,486z M391,503.5c1.1-1.5,1.7-3.5,1.7-6.1c0-2.6-0.6-4.6-1.7-6
		c-1.1-1.4-2.7-2.1-4.8-2.1c-2.1,0-3.7,0.7-4.8,2.1c-1.1,1.4-1.7,3.4-1.7,6c0,2.6,0.6,4.7,1.7,6.1c1.1,1.4,2.7,2.1,4.9,2.1
		C388.3,505.6,389.9,504.9,391,503.5z"/>
	<path class="st0" d="M404.3,510.1v-36.5h6.1v36.5H404.3z"/>
	<path class="st0" d="M439.2,497.9h-17.2c0.1,2.7,0.8,4.7,2,5.9c1.2,1.3,3,1.9,5.4,1.9c2.7,0,5.3-0.9,7.6-2.7l1.8,4.3
		c-1.2,1-2.6,1.7-4.4,2.3c-1.7,0.6-3.5,0.9-5.3,0.9c-4.1,0-7.3-1.2-9.7-3.5c-2.3-2.3-3.5-5.5-3.5-9.5c0-2.5,0.5-4.8,1.5-6.8
		c1-2,2.5-3.5,4.3-4.6c1.8-1.1,3.9-1.7,6.3-1.7c3.4,0,6.2,1.1,8.2,3.3c2,2.2,3,5.3,3,9.2V497.9z M424.1,490.3c-1,1-1.7,2.4-2,4.2
		h11.6c-0.2-1.9-0.8-3.3-1.7-4.3c-0.9-1-2.2-1.4-3.9-1.4C426.5,488.9,425.2,489.4,424.1,490.3z"/>
</g>
</svg>
