<svg xmlns="http://www.w3.org/2000/svg" width="24" height="24" viewBox="0 0 24 24"><defs><style>.diff-a,.diff-b{fill:none;stroke:#5c747b;stroke-linecap:round;stroke-linejoin:round;}.diff-a{fill-rule:evenodd;}</style></defs><g transform="translate(-339 -417)"><g transform="translate(-45 -37)"><path class="diff-a" d="M404.5,464.5a5.529,5.529,0,0,0,2-4.25,5.75,5.75,0,0,0-5.75-5.75h-9.5a5.75,5.75,0,0,0-5.75,5.75,5.51,5.51,0,0,0,2,4.25Z"/><path class="diff-b" d="M393,459.5l1.5-3,1.5,2,1.5-2,1.5,3"/><path class="diff-a" d="M404.5,464.5a3,3,0,0,0-3-3h-11a3,3,0,0,0-3,3V469a8.5,8.5,0,0,0,17,0Z"/><path class="diff-b" d="M387.5,465.5H387a2.5,2.5,0,0,0,0,5h.632"/><path class="diff-b" d="M404.5,465.5h.5a2.5,2.5,0,0,1,0,5h-.632"/><path class="diff-b" d="M392.5,467v1"/><path class="diff-b" d="M399.5,467v1"/><path class="diff-a" d="M398.835,470.34a.866.866,0,0,0-.933.567,1.931,1.931,0,0,1-3.8,0,.866.866,0,0,0-.933-.567l-3.167.342.513,1.367a1.338,1.338,0,0,0,2.25.431l.49.885a4.964,4.964,0,0,1,4.161.893,1.558,1.558,0,0,0,1.333-.893l.49-.885a1.338,1.338,0,0,0,2.25-.431l.513-1.367Z"/></g></g></svg>