<svg xmlns="http://www.w3.org/2000/svg" width="53.181" height="54.993" viewBox="0 0 53.181 54.993"><defs><style>.like-a{fill:#ffc380;}.like-b{fill:#ffcf99;}.like-c{fill:#29ccb1;}.like-d{fill:#73c3ff;}.like-e{fill:#e5e5e5;}.like-f{fill:#0052a0;}.like-g{fill:#3e7bb5;}</style></defs><g transform="translate(0)"><path class="like-a" d="M214.829,97.747H200.868a1.614,1.614,0,0,1-.821-3c6.083-3.594,9.243-7.787,9.659-12.818a3.469,3.469,0,0,1,3.466-3.117,6.822,6.822,0,0,1,6.715,6.819h0v.542c0,4.4-1.3,7.212-3.711,10.853A1.614,1.614,0,0,1,214.829,97.747Z" transform="translate(-178.759 -70.343)"/><path class="like-b" d="M176.265,230.141a5.063,5.063,0,0,0-5.058-5.058H145.194a1.613,1.613,0,0,0-.821.225c-1.826,1.08-3.67,1.968-5.151,2.683-.517.249-1,.484-1.449.706a1.614,1.614,0,0,0-.892,1.444V250.8a1.614,1.614,0,0,0,.892,1.444c6.522,3.261,11.944,3.655,18.266,3.655.979,0,1.98-.009,3.01-.019,1.139-.011,2.316-.022,3.55-.022h5.1a5.056,5.056,0,0,0,4.355-7.628,5.053,5.053,0,0,0,1.722-6.887,5.052,5.052,0,0,0,1.1-7.725A5.023,5.023,0,0,0,176.265,230.141Z" transform="translate(-123.084 -200.907)"/><g transform="translate(20.661)"><path class="like-c" d="M430.273,114.289h-3.444a1.614,1.614,0,0,1,0-3.228h3.444a1.614,1.614,0,0,1,0,3.228Z" transform="translate(-401.11 -99.132)"/><path class="like-c" d="M205.854,114.289H202.41a1.614,1.614,0,0,1,0-3.228h3.444a1.614,1.614,0,0,1,0,3.228Z" transform="translate(-200.796 -99.132)"/><path class="like-c" d="M268.253,6.212a1.613,1.613,0,0,1-1.4-.807l-1.722-2.982a1.614,1.614,0,0,1,2.8-1.614l1.722,2.982a1.615,1.615,0,0,1-1.4,2.421Z" transform="translate(-258.028 -0.001)"/><path class="like-c" d="M378.736,6.211a1.615,1.615,0,0,1-1.4-2.421L379.061.808a1.614,1.614,0,1,1,2.8,1.614L380.135,5.4A1.613,1.613,0,0,1,378.736,6.211Z" transform="translate(-358.184 0)"/></g><path class="like-d" d="M75.785,419.246v8.5H72.557v-8.5a1.614,1.614,0,0,1,3.228,0Z" transform="translate(-65.67 -372.775)"/><g transform="translate(20.661)"><path class="like-e" d="M430.273,114.289h-3.444a1.614,1.614,0,0,1,0-3.228h3.444a1.614,1.614,0,0,1,0,3.228Z" transform="translate(-401.11 -99.132)"/><path class="like-e" d="M205.854,114.289H202.41a1.614,1.614,0,0,1,0-3.228h3.444a1.614,1.614,0,0,1,0,3.228Z" transform="translate(-200.796 -99.132)"/><path class="like-e" d="M268.253,6.212a1.613,1.613,0,0,1-1.4-.807l-1.722-2.982a1.614,1.614,0,0,1,2.8-1.614l1.722,2.982a1.615,1.615,0,0,1-1.4,2.421Z" transform="translate(-258.028 -0.001)"/><path class="like-e" d="M378.736,6.211a1.615,1.615,0,0,1-1.4-2.421L379.061.808a1.614,1.614,0,1,1,2.8,1.614L380.135,5.4A1.613,1.613,0,0,1,378.736,6.211Z" transform="translate(-358.184 0)"/></g><g transform="translate(6.887 44.857)"><path class="like-d" d="M75.785,419.246v8.5H72.557v-8.5a1.614,1.614,0,0,1,3.228,0Z" transform="translate(-72.557 -417.632)"/></g><path class="like-f" d="M23.826,225.083H10.052A1.615,1.615,0,0,0,8.438,226.7v27.548a1.645,1.645,0,0,0,1.614,1.635h10.33a5.116,5.116,0,0,0,4.525-2.822,5.015,5.015,0,0,0,.533-2.257V226.7A1.615,1.615,0,0,0,23.826,225.083Z" transform="translate(-8.438 -200.907)"/><path class="like-g" d="M75.785,418.244v8.609H72.557v-8.609a1.614,1.614,0,0,1,3.228,0Z" transform="translate(-65.67 -371.88)"/></g></svg>