<svg xmlns="http://www.w3.org/2000/svg" width="24" height="23.422" viewBox="0 0 24 23.422"><defs><style>.points-a,.points-b{fill:none;stroke:#5c747b;stroke-linecap:round;stroke-linejoin:round;}.points-b{fill-rule:evenodd;}</style></defs><g transform="translate(-48 -310.305)"><path class="points-a" d="M49.3,311.758l13.29,3.319A4.055,4.055,0,0,1,65.5,318.8v12a2.272,2.272,0,0,1-2.92,2.312l-11.16-2.624A3.983,3.983,0,0,1,48.5,326.8v-13a3.009,3.009,0,0,1,3-3h17a3.009,3.009,0,0,1,3,3v11a3.008,3.008,0,0,1-3,3h-3"/><path class="points-a" d="M57.5,313.8h10"/><path class="points-b" d="M61,325.8a2,2,0,1,0-2-2A2,2,0,0,0,61,325.8Z"/><path class="points-a" d="M65.5,318.8h2"/></g></svg>